<mxfile host="Electron" agent="Mozilla/5.0 (Windows NT 10.0; Win64; x64) AppleWebKit/537.36 (KHTML, like Gecko) draw.io/26.0.4 Chrome/128.0.6613.186 Electron/32.2.5 Safari/537.36" version="26.0.4" pages="2">
  <diagram name="layout" id="271-cqc7lN5esvMewJTl">
    <mxGraphModel dx="757" dy="681" grid="1" gridSize="10" guides="1" tooltips="1" connect="1" arrows="1" fold="1" page="0" pageScale="1" pageWidth="827" pageHeight="1169" math="0" shadow="0">
      <root>
        <mxCell id="0" />
        <mxCell id="1" parent="0" />
        <mxCell id="MY-0GuRKqusyicPiuqB_-1" value="[0,3]" style="rounded=0;whiteSpace=wrap;html=1;fillColor=#4D4D4D;strokeColor=#000000;fontColor=#ffffff;strokeWidth=1;" parent="1" vertex="1">
          <mxGeometry x="160" y="160" width="40" height="40" as="geometry" />
        </mxCell>
        <mxCell id="MY-0GuRKqusyicPiuqB_-2" value="[1,3]" style="rounded=0;whiteSpace=wrap;html=1;fillColor=#4D4D4D;strokeColor=#000000;fontColor=#ffffff;strokeWidth=1;" parent="1" vertex="1">
          <mxGeometry x="160" y="200" width="40" height="40" as="geometry" />
        </mxCell>
        <mxCell id="MY-0GuRKqusyicPiuqB_-3" value="[2,3]" style="rounded=0;whiteSpace=wrap;html=1;fillColor=#4D4D4D;strokeColor=#000000;fontColor=#ffffff;strokeWidth=1;" parent="1" vertex="1">
          <mxGeometry x="160" y="240" width="40" height="40" as="geometry" />
        </mxCell>
        <mxCell id="MY-0GuRKqusyicPiuqB_-4" value="[0,4]" style="rounded=0;whiteSpace=wrap;html=1;fillColor=#4D4D4D;strokeColor=#000000;fontColor=#ffffff;strokeWidth=1;" parent="1" vertex="1">
          <mxGeometry x="200" y="170" width="40" height="40" as="geometry" />
        </mxCell>
        <mxCell id="MY-0GuRKqusyicPiuqB_-5" value="[1,4]" style="rounded=0;whiteSpace=wrap;html=1;fillColor=#4D4D4D;strokeColor=#000000;fontColor=#ffffff;strokeWidth=1;" parent="1" vertex="1">
          <mxGeometry x="200" y="210" width="40" height="40" as="geometry" />
        </mxCell>
        <mxCell id="MY-0GuRKqusyicPiuqB_-6" value="[2,4]" style="rounded=0;whiteSpace=wrap;html=1;fillColor=#4D4D4D;strokeColor=#000000;fontColor=#ffffff;strokeWidth=1;" parent="1" vertex="1">
          <mxGeometry x="200" y="250" width="40" height="40" as="geometry" />
        </mxCell>
        <mxCell id="MY-0GuRKqusyicPiuqB_-7" value="[0,2]" style="rounded=0;whiteSpace=wrap;html=1;fillColor=#4D4D4D;strokeColor=#000000;fontColor=#ffffff;strokeWidth=1;" parent="1" vertex="1">
          <mxGeometry x="120" y="170" width="40" height="40" as="geometry" />
        </mxCell>
        <mxCell id="MY-0GuRKqusyicPiuqB_-8" value="[1,2]" style="rounded=0;whiteSpace=wrap;html=1;fillColor=#4D4D4D;strokeColor=#000000;fontColor=#ffffff;strokeWidth=1;" parent="1" vertex="1">
          <mxGeometry x="120" y="210" width="40" height="40" as="geometry" />
        </mxCell>
        <mxCell id="MY-0GuRKqusyicPiuqB_-9" value="[2,2]" style="rounded=0;whiteSpace=wrap;html=1;fillColor=#4D4D4D;strokeColor=#000000;fontColor=#ffffff;strokeWidth=1;" parent="1" vertex="1">
          <mxGeometry x="120" y="250" width="40" height="40" as="geometry" />
        </mxCell>
        <mxCell id="MY-0GuRKqusyicPiuqB_-10" value="[0,5]" style="rounded=0;whiteSpace=wrap;html=1;fillColor=#4D4D4D;strokeColor=#000000;fontColor=#ffffff;strokeWidth=1;" parent="1" vertex="1">
          <mxGeometry x="240" y="180" width="40" height="40" as="geometry" />
        </mxCell>
        <mxCell id="MY-0GuRKqusyicPiuqB_-11" value="[1,5]" style="rounded=0;whiteSpace=wrap;html=1;fillColor=#4D4D4D;strokeColor=#000000;fontColor=#ffffff;strokeWidth=1;" parent="1" vertex="1">
          <mxGeometry x="240" y="220" width="40" height="40" as="geometry" />
        </mxCell>
        <mxCell id="MY-0GuRKqusyicPiuqB_-12" value="[2,5]" style="rounded=0;whiteSpace=wrap;html=1;fillColor=#4D4D4D;strokeColor=#000000;fontColor=#ffffff;strokeWidth=1;" parent="1" vertex="1">
          <mxGeometry x="240" y="260" width="40" height="40" as="geometry" />
        </mxCell>
        <mxCell id="MY-0GuRKqusyicPiuqB_-13" value="[0,1]" style="rounded=0;whiteSpace=wrap;html=1;fillColor=#4D4D4D;strokeColor=#000000;fontColor=#ffffff;strokeWidth=1;" parent="1" vertex="1">
          <mxGeometry x="80" y="180" width="40" height="40" as="geometry" />
        </mxCell>
        <mxCell id="MY-0GuRKqusyicPiuqB_-14" value="[1,1]" style="rounded=0;whiteSpace=wrap;html=1;fillColor=#4D4D4D;strokeColor=#000000;fontColor=#ffffff;strokeWidth=1;" parent="1" vertex="1">
          <mxGeometry x="80" y="220" width="40" height="40" as="geometry" />
        </mxCell>
        <mxCell id="MY-0GuRKqusyicPiuqB_-15" value="[2,1]" style="rounded=0;whiteSpace=wrap;html=1;fillColor=#4D4D4D;strokeColor=#000000;fontColor=#ffffff;strokeWidth=1;" parent="1" vertex="1">
          <mxGeometry x="80" y="260" width="40" height="40" as="geometry" />
        </mxCell>
        <mxCell id="MY-0GuRKqusyicPiuqB_-16" value="[1,0]" style="rounded=0;whiteSpace=wrap;html=1;fillColor=#4D4D4D;strokeColor=#000000;fontColor=#ffffff;strokeWidth=1;" parent="1" vertex="1">
          <mxGeometry x="40" y="210" width="40" height="40" as="geometry" />
        </mxCell>
        <mxCell id="MY-0GuRKqusyicPiuqB_-17" value="[2,0]" style="rounded=0;whiteSpace=wrap;html=1;fillColor=#4D4D4D;strokeColor=#000000;fontColor=#ffffff;strokeWidth=1;" parent="1" vertex="1">
          <mxGeometry x="40" y="250" width="40" height="40" as="geometry" />
        </mxCell>
        <mxCell id="MY-0GuRKqusyicPiuqB_-18" value="[7,4]" style="rounded=0;whiteSpace=wrap;html=1;fillColor=#4D4D4D;strokeColor=#000000;fontColor=#ffffff;strokeWidth=1;" parent="1" vertex="1">
          <mxGeometry x="380" y="330" width="40" height="40" as="geometry" />
        </mxCell>
        <mxCell id="MY-0GuRKqusyicPiuqB_-19" value="[3,1]" style="rounded=0;whiteSpace=wrap;html=1;fillColor=#4D4D4D;strokeColor=#000000;fontColor=#ffffff;strokeWidth=1;" parent="1" vertex="1">
          <mxGeometry x="180" y="300" width="40" height="40" as="geometry" />
        </mxCell>
        <mxCell id="MY-0GuRKqusyicPiuqB_-20" value="[3,2]" style="rounded=0;whiteSpace=wrap;html=1;fillColor=#4D4D4D;strokeColor=#000000;fontColor=#ffffff;strokeWidth=1;" parent="1" vertex="1">
          <mxGeometry x="220" y="310" width="40" height="40" as="geometry" />
        </mxCell>
        <mxCell id="MY-0GuRKqusyicPiuqB_-21" value="[3,3]" style="rounded=0;whiteSpace=wrap;html=1;fillColor=#4D4D4D;strokeColor=#000000;fontColor=#ffffff;strokeWidth=1;" parent="1" vertex="1">
          <mxGeometry x="260" y="320" width="40" height="40" as="geometry" />
        </mxCell>
        <mxCell id="MY-0GuRKqusyicPiuqB_-22" value="[3,4]" style="rounded=0;whiteSpace=wrap;html=1;fillColor=#4D4D4D;strokeColor=#000000;fontColor=#ffffff;strokeWidth=1;" parent="1" vertex="1">
          <mxGeometry x="300" y="330" width="40" height="40" as="geometry" />
        </mxCell>
        <mxCell id="MY-0GuRKqusyicPiuqB_-23" value="[7,3]" style="rounded=0;whiteSpace=wrap;html=1;fillColor=#4D4D4D;strokeColor=#000000;fontColor=#ffffff;strokeWidth=1;" parent="1" vertex="1">
          <mxGeometry x="420" y="320" width="40" height="40" as="geometry" />
        </mxCell>
        <mxCell id="MY-0GuRKqusyicPiuqB_-24" value="[7,2]" style="rounded=0;whiteSpace=wrap;html=1;fillColor=#4D4D4D;strokeColor=#000000;fontColor=#ffffff;strokeWidth=1;" parent="1" vertex="1">
          <mxGeometry x="460" y="310" width="40" height="40" as="geometry" />
        </mxCell>
        <mxCell id="MY-0GuRKqusyicPiuqB_-25" value="[7,1]" style="rounded=0;whiteSpace=wrap;html=1;fillColor=#4D4D4D;strokeColor=#000000;fontColor=#ffffff;strokeWidth=1;" parent="1" vertex="1">
          <mxGeometry x="500" y="300" width="40" height="40" as="geometry" />
        </mxCell>
        <mxCell id="MY-0GuRKqusyicPiuqB_-26" value="[6,5]" style="rounded=0;whiteSpace=wrap;html=1;fillColor=#4D4D4D;strokeColor=#000000;fontColor=#ffffff;strokeWidth=1;" parent="1" vertex="1">
          <mxGeometry x="440" y="260" width="40" height="40" as="geometry" />
        </mxCell>
        <mxCell id="MY-0GuRKqusyicPiuqB_-27" value="[5,5]" style="rounded=0;whiteSpace=wrap;html=1;fillColor=#4D4D4D;strokeColor=#000000;fontColor=#ffffff;strokeWidth=1;" parent="1" vertex="1">
          <mxGeometry x="440" y="220" width="40" height="40" as="geometry" />
        </mxCell>
        <mxCell id="MY-0GuRKqusyicPiuqB_-28" value="[4,5]" style="rounded=0;whiteSpace=wrap;html=1;fillColor=#4D4D4D;strokeColor=#000000;fontColor=#ffffff;strokeWidth=1;" parent="1" vertex="1">
          <mxGeometry x="440" y="180" width="40" height="40" as="geometry" />
        </mxCell>
        <mxCell id="MY-0GuRKqusyicPiuqB_-29" value="[6,4]" style="rounded=0;whiteSpace=wrap;html=1;fillColor=#4D4D4D;strokeColor=#000000;fontColor=#ffffff;strokeWidth=1;" parent="1" vertex="1">
          <mxGeometry x="480" y="250" width="40" height="40" as="geometry" />
        </mxCell>
        <mxCell id="MY-0GuRKqusyicPiuqB_-30" value="[5,4]" style="rounded=0;whiteSpace=wrap;html=1;fillColor=#4D4D4D;strokeColor=#000000;fontColor=#ffffff;strokeWidth=1;" parent="1" vertex="1">
          <mxGeometry x="480" y="210" width="40" height="40" as="geometry" />
        </mxCell>
        <mxCell id="MY-0GuRKqusyicPiuqB_-31" value="[4,4]" style="rounded=0;whiteSpace=wrap;html=1;fillColor=#4D4D4D;strokeColor=#000000;fontColor=#ffffff;strokeWidth=1;" parent="1" vertex="1">
          <mxGeometry x="480" y="170" width="40" height="40" as="geometry" />
        </mxCell>
        <mxCell id="MY-0GuRKqusyicPiuqB_-32" value="[4,3]" style="rounded=0;whiteSpace=wrap;html=1;fillColor=#4D4D4D;strokeColor=#000000;fontColor=#ffffff;strokeWidth=1;" parent="1" vertex="1">
          <mxGeometry x="520" y="160" width="40" height="40" as="geometry" />
        </mxCell>
        <mxCell id="MY-0GuRKqusyicPiuqB_-33" value="[5,3]" style="rounded=0;whiteSpace=wrap;html=1;fillColor=#4D4D4D;strokeColor=#000000;fontColor=#ffffff;strokeWidth=1;" parent="1" vertex="1">
          <mxGeometry x="520" y="200" width="40" height="40" as="geometry" />
        </mxCell>
        <mxCell id="MY-0GuRKqusyicPiuqB_-34" value="[6,3]" style="rounded=0;whiteSpace=wrap;html=1;fillColor=#4D4D4D;strokeColor=#000000;fontColor=#ffffff;strokeWidth=1;" parent="1" vertex="1">
          <mxGeometry x="520" y="240" width="40" height="40" as="geometry" />
        </mxCell>
        <mxCell id="MY-0GuRKqusyicPiuqB_-35" value="[4,2]" style="rounded=0;whiteSpace=wrap;html=1;fillColor=#4D4D4D;strokeColor=#000000;fontColor=#ffffff;strokeWidth=1;" parent="1" vertex="1">
          <mxGeometry x="560" y="170" width="40" height="40" as="geometry" />
        </mxCell>
        <mxCell id="MY-0GuRKqusyicPiuqB_-36" value="[5,2]" style="rounded=0;whiteSpace=wrap;html=1;fillColor=#4D4D4D;strokeColor=#000000;fontColor=#ffffff;strokeWidth=1;" parent="1" vertex="1">
          <mxGeometry x="560" y="210" width="40" height="40" as="geometry" />
        </mxCell>
        <mxCell id="MY-0GuRKqusyicPiuqB_-37" value="[6,2]" style="rounded=0;whiteSpace=wrap;html=1;fillColor=#4D4D4D;strokeColor=#000000;fontColor=#ffffff;strokeWidth=1;" parent="1" vertex="1">
          <mxGeometry x="560" y="250" width="40" height="40" as="geometry" />
        </mxCell>
        <mxCell id="MY-0GuRKqusyicPiuqB_-38" value="[4,1]" style="rounded=0;whiteSpace=wrap;html=1;fillColor=#4D4D4D;strokeColor=#000000;fontColor=#ffffff;strokeWidth=1;" parent="1" vertex="1">
          <mxGeometry x="600" y="180" width="40" height="40" as="geometry" />
        </mxCell>
        <mxCell id="MY-0GuRKqusyicPiuqB_-39" value="[5,1]" style="rounded=0;whiteSpace=wrap;html=1;fillColor=#4D4D4D;strokeColor=#000000;fontColor=#ffffff;strokeWidth=1;" parent="1" vertex="1">
          <mxGeometry x="600" y="220" width="40" height="40" as="geometry" />
        </mxCell>
        <mxCell id="MY-0GuRKqusyicPiuqB_-40" value="[6,1]" style="rounded=0;whiteSpace=wrap;html=1;fillColor=#4D4D4D;strokeColor=#000000;fontColor=#ffffff;strokeWidth=1;" parent="1" vertex="1">
          <mxGeometry x="600" y="260" width="40" height="40" as="geometry" />
        </mxCell>
        <mxCell id="MY-0GuRKqusyicPiuqB_-41" value="[5,0]" style="rounded=0;whiteSpace=wrap;html=1;fillColor=#4D4D4D;strokeColor=#000000;fontColor=#ffffff;strokeWidth=1;" parent="1" vertex="1">
          <mxGeometry x="640" y="210" width="40" height="40" as="geometry" />
        </mxCell>
        <mxCell id="MY-0GuRKqusyicPiuqB_-42" value="[6,0]" style="rounded=0;whiteSpace=wrap;html=1;fillColor=#4D4D4D;strokeColor=#000000;fontColor=#ffffff;strokeWidth=1;" parent="1" vertex="1">
          <mxGeometry x="640" y="250" width="40" height="40" as="geometry" />
        </mxCell>
        <mxCell id="MY-0GuRKqusyicPiuqB_-43" value="[3,5]" style="ellipse;whiteSpace=wrap;html=1;fillColor=#4D4D4D;strokeColor=#000000;fontColor=#ffffff;strokeWidth=1;" parent="1" vertex="1">
          <mxGeometry x="290" y="250" width="60" height="60" as="geometry" />
        </mxCell>
        <mxCell id="MY-0GuRKqusyicPiuqB_-45" value="[7,5]" style="ellipse;whiteSpace=wrap;html=1;fillColor=#4D4D4D;strokeColor=#000000;fontColor=#ffffff;strokeWidth=1;" parent="1" vertex="1">
          <mxGeometry x="370" y="250" width="60" height="60" as="geometry" />
        </mxCell>
        <mxCell id="MY-0GuRKqusyicPiuqB_-50" value="" style="endArrow=none;html=1;rounded=0;fillColor=#647687;strokeColor=#000000;strokeWidth=2;" parent="1" edge="1">
          <mxGeometry width="50" height="50" relative="1" as="geometry">
            <mxPoint x="300" y="229.85999999999999" as="sourcePoint" />
            <mxPoint x="310" y="229.85999999999999" as="targetPoint" />
          </mxGeometry>
        </mxCell>
        <mxCell id="MY-0GuRKqusyicPiuqB_-51" value="" style="endArrow=none;html=1;rounded=0;fillColor=#647687;strokeColor=#000000;strokeWidth=2;" parent="1" edge="1">
          <mxGeometry width="50" height="50" relative="1" as="geometry">
            <mxPoint x="310" y="229.85999999999999" as="sourcePoint" />
            <mxPoint x="310" y="209.85999999999999" as="targetPoint" />
          </mxGeometry>
        </mxCell>
        <mxCell id="MY-0GuRKqusyicPiuqB_-52" value="" style="endArrow=none;html=1;rounded=0;fillColor=#647687;strokeColor=#000000;strokeWidth=2;" parent="1" edge="1">
          <mxGeometry width="50" height="50" relative="1" as="geometry">
            <mxPoint x="310" y="209.85999999999999" as="sourcePoint" />
            <mxPoint x="330" y="229.85999999999999" as="targetPoint" />
            <Array as="points">
              <mxPoint x="320" y="209.85999999999999" />
              <mxPoint x="320" y="229.85999999999999" />
            </Array>
          </mxGeometry>
        </mxCell>
        <mxCell id="MY-0GuRKqusyicPiuqB_-53" value="" style="endArrow=none;html=1;rounded=0;fillColor=#647687;strokeColor=#000000;strokeWidth=2;" parent="1" edge="1">
          <mxGeometry width="50" height="50" relative="1" as="geometry">
            <mxPoint x="330" y="229.85999999999999" as="sourcePoint" />
            <mxPoint x="330" y="209.85999999999999" as="targetPoint" />
          </mxGeometry>
        </mxCell>
        <mxCell id="MY-0GuRKqusyicPiuqB_-54" value="" style="endArrow=none;html=1;rounded=0;fillColor=#647687;strokeColor=#000000;strokeWidth=2;" parent="1" edge="1">
          <mxGeometry width="50" height="50" relative="1" as="geometry">
            <mxPoint x="330" y="209.85999999999999" as="sourcePoint" />
            <mxPoint x="350" y="229.85999999999999" as="targetPoint" />
            <Array as="points">
              <mxPoint x="340" y="209.85999999999999" />
              <mxPoint x="340" y="229.85999999999999" />
            </Array>
          </mxGeometry>
        </mxCell>
        <mxCell id="MY-0GuRKqusyicPiuqB_-55" value="" style="endArrow=none;html=1;rounded=0;fillColor=#647687;strokeColor=#000000;strokeWidth=2;" parent="1" edge="1">
          <mxGeometry width="50" height="50" relative="1" as="geometry">
            <mxPoint x="350" y="229.85999999999999" as="sourcePoint" />
            <mxPoint x="350" y="209.85999999999999" as="targetPoint" />
          </mxGeometry>
        </mxCell>
        <mxCell id="MY-0GuRKqusyicPiuqB_-56" value="" style="endArrow=none;html=1;rounded=0;fillColor=#647687;strokeColor=#000000;strokeWidth=2;" parent="1" edge="1">
          <mxGeometry width="50" height="50" relative="1" as="geometry">
            <mxPoint x="350" y="209.85999999999999" as="sourcePoint" />
            <mxPoint x="370" y="229.85999999999999" as="targetPoint" />
            <Array as="points">
              <mxPoint x="360" y="209.85999999999999" />
              <mxPoint x="360" y="229.85999999999999" />
            </Array>
          </mxGeometry>
        </mxCell>
        <mxCell id="MY-0GuRKqusyicPiuqB_-57" value="" style="endArrow=none;html=1;rounded=0;fillColor=#647687;strokeColor=#000000;strokeWidth=2;" parent="1" edge="1">
          <mxGeometry width="50" height="50" relative="1" as="geometry">
            <mxPoint x="370" y="229.85999999999999" as="sourcePoint" />
            <mxPoint x="370" y="209.85999999999999" as="targetPoint" />
          </mxGeometry>
        </mxCell>
        <mxCell id="MY-0GuRKqusyicPiuqB_-58" value="" style="endArrow=none;html=1;rounded=0;fillColor=#647687;strokeColor=#000000;strokeWidth=2;" parent="1" edge="1">
          <mxGeometry width="50" height="50" relative="1" as="geometry">
            <mxPoint x="370" y="209.85999999999999" as="sourcePoint" />
            <mxPoint x="390" y="229.85999999999999" as="targetPoint" />
            <Array as="points">
              <mxPoint x="380" y="209.85999999999999" />
              <mxPoint x="380" y="229.85999999999999" />
            </Array>
          </mxGeometry>
        </mxCell>
        <mxCell id="MY-0GuRKqusyicPiuqB_-59" value="" style="endArrow=none;html=1;rounded=0;fillColor=#647687;strokeColor=#000000;strokeWidth=2;" parent="1" edge="1">
          <mxGeometry width="50" height="50" relative="1" as="geometry">
            <mxPoint x="390" y="229.85999999999999" as="sourcePoint" />
            <mxPoint x="390" y="209.85999999999999" as="targetPoint" />
          </mxGeometry>
        </mxCell>
        <mxCell id="MY-0GuRKqusyicPiuqB_-60" value="" style="endArrow=none;html=1;rounded=0;fillColor=#647687;strokeColor=#000000;strokeWidth=2;" parent="1" edge="1">
          <mxGeometry width="50" height="50" relative="1" as="geometry">
            <mxPoint x="390" y="209.85999999999999" as="sourcePoint" />
            <mxPoint x="410" y="229.85999999999999" as="targetPoint" />
            <Array as="points">
              <mxPoint x="400" y="209.85999999999999" />
              <mxPoint x="400" y="229.85999999999999" />
            </Array>
          </mxGeometry>
        </mxCell>
        <mxCell id="MY-0GuRKqusyicPiuqB_-61" value="" style="endArrow=none;html=1;rounded=0;fillColor=#647687;strokeColor=#000000;strokeWidth=2;" parent="1" edge="1">
          <mxGeometry width="50" height="50" relative="1" as="geometry">
            <mxPoint x="300" y="230" as="sourcePoint" />
            <mxPoint x="300" y="210" as="targetPoint" />
          </mxGeometry>
        </mxCell>
        <mxCell id="MY-0GuRKqusyicPiuqB_-62" value="" style="endArrow=none;html=1;rounded=0;entryX=0;entryY=1;entryDx=0;entryDy=0;fillColor=#647687;strokeColor=#000000;strokeWidth=2;" parent="1" target="MY-0GuRKqusyicPiuqB_-28" edge="1">
          <mxGeometry width="50" height="50" relative="1" as="geometry">
            <mxPoint x="409.72" y="230" as="sourcePoint" />
            <mxPoint x="420" y="210" as="targetPoint" />
            <Array as="points">
              <mxPoint x="410" y="210" />
              <mxPoint x="420" y="210" />
              <mxPoint x="420" y="220" />
              <mxPoint x="420" y="230" />
              <mxPoint x="430" y="230" />
              <mxPoint x="430" y="220" />
            </Array>
          </mxGeometry>
        </mxCell>
        <mxCell id="MY-0GuRKqusyicPiuqB_-64" value="" style="endArrow=none;html=1;rounded=0;exitX=1;exitY=0;exitDx=0;exitDy=0;fillColor=#647687;strokeColor=#000000;strokeWidth=2;" parent="1" source="MY-0GuRKqusyicPiuqB_-11" edge="1">
          <mxGeometry width="50" height="50" relative="1" as="geometry">
            <mxPoint x="310" y="239.85999999999999" as="sourcePoint" />
            <mxPoint x="300" y="210" as="targetPoint" />
            <Array as="points">
              <mxPoint x="290" y="220" />
              <mxPoint x="290" y="210" />
            </Array>
          </mxGeometry>
        </mxCell>
      </root>
    </mxGraphModel>
  </diagram>
  <diagram id="4Sp0jBvuv-XDWsD6Wa9R" name="default">
    <mxGraphModel dx="2128" dy="997" grid="1" gridSize="10" guides="1" tooltips="1" connect="1" arrows="1" fold="1" page="0" pageScale="1" pageWidth="827" pageHeight="1169" background="#FDF6E3" math="0" shadow="0">
      <root>
        <mxCell id="0" />
        <mxCell id="1" parent="0" />
        <mxCell id="GVH4jZ6WvnSyrgxlW-XO-4" value="" style="endArrow=block;html=1;rounded=1;fontFamily=Open Sans;jumpStyle=gap;startSize=2;endSize=2;endFill=1;strokeWidth=1;strokeColor=#999999;exitX=0.5;exitY=1;exitDx=0;exitDy=0;" edge="1" parent="1" source="GVH4jZ6WvnSyrgxlW-XO-10">
          <mxGeometry width="50" height="50" relative="1" as="geometry">
            <mxPoint x="560" y="550" as="sourcePoint" />
            <mxPoint x="560" y="610" as="targetPoint" />
          </mxGeometry>
        </mxCell>
        <mxCell id="vejenVK3Xea3yigtUyAx-22" value="TAB" style="rounded=1;whiteSpace=wrap;html=1;fillColor=#F5F5EE;fontFamily=Open Sans;fontSource=https%3A%2F%2Ffonts.googleapis.com%2Fcss%3Ffamily%3DOpen%2BSans;strokeColor=#333333;fontColor=#1A1A1A;" parent="1" vertex="1">
          <mxGeometry x="60" y="190" width="40" height="30" as="geometry" />
        </mxCell>
        <mxCell id="vejenVK3Xea3yigtUyAx-23" value="CAPS" style="rounded=1;whiteSpace=wrap;html=1;fillColor=#F5F5EE;fontFamily=Open Sans;fontSource=https%3A%2F%2Ffonts.googleapis.com%2Fcss%3Ffamily%3DOpen%2BSans;strokeColor=#333333;fontColor=#1A1A1A;" parent="1" vertex="1">
          <mxGeometry x="60" y="220" width="40" height="30" as="geometry" />
        </mxCell>
        <mxCell id="zuYzNc_lJ5P3SSd-C0C7-1" value="A" style="rounded=1;whiteSpace=wrap;html=1;fillColor=#F5F5EE;fontFamily=Open Sans;fontSource=https%3A%2F%2Ffonts.googleapis.com%2Fcss%3Ffamily%3DOpen%2BSans;strokeColor=#333333;fontColor=#1A1A1A;" parent="1" vertex="1">
          <mxGeometry x="100" y="190" width="40" height="30" as="geometry" />
        </mxCell>
        <mxCell id="zuYzNc_lJ5P3SSd-C0C7-2" value="Z" style="rounded=1;whiteSpace=wrap;html=1;fillColor=#F5F5EE;fontFamily=Open Sans;fontSource=https%3A%2F%2Ffonts.googleapis.com%2Fcss%3Ffamily%3DOpen%2BSans;strokeColor=#333333;fontColor=#1A1A1A;" parent="1" vertex="1">
          <mxGeometry x="100" y="220" width="40" height="30" as="geometry" />
        </mxCell>
        <mxCell id="zuYzNc_lJ5P3SSd-C0C7-3" value="Q" style="rounded=1;whiteSpace=wrap;html=1;fillColor=#F5F5EE;fontFamily=Open Sans;fontSource=https%3A%2F%2Ffonts.googleapis.com%2Fcss%3Ffamily%3DOpen%2BSans;strokeColor=#333333;fontColor=#1A1A1A;" parent="1" vertex="1">
          <mxGeometry x="100" y="160" width="40" height="30" as="geometry" />
        </mxCell>
        <mxCell id="zuYzNc_lJ5P3SSd-C0C7-4" value="S+ALT" style="rounded=1;whiteSpace=wrap;html=1;fillColor=#F5F5EE;fontFamily=Open Sans;fontSource=https%3A%2F%2Ffonts.googleapis.com%2Fcss%3Ffamily%3DOpen%2BSans;strokeColor=#333333;fontColor=#1A1A1A;" parent="1" vertex="1">
          <mxGeometry x="140" y="190" width="40" height="30" as="geometry" />
        </mxCell>
        <mxCell id="zuYzNc_lJ5P3SSd-C0C7-5" value="X" style="rounded=1;whiteSpace=wrap;html=1;fillColor=#F5F5EE;fontFamily=Open Sans;fontSource=https%3A%2F%2Ffonts.googleapis.com%2Fcss%3Ffamily%3DOpen%2BSans;strokeColor=#333333;fontColor=#1A1A1A;" parent="1" vertex="1">
          <mxGeometry x="140" y="220" width="40" height="30" as="geometry" />
        </mxCell>
        <mxCell id="zuYzNc_lJ5P3SSd-C0C7-6" value="W" style="rounded=1;whiteSpace=wrap;html=1;fillColor=#F5F5EE;fontFamily=Open Sans;fontSource=https%3A%2F%2Ffonts.googleapis.com%2Fcss%3Ffamily%3DOpen%2BSans;strokeColor=#333333;fontColor=#1A1A1A;" parent="1" vertex="1">
          <mxGeometry x="140" y="160" width="40" height="30" as="geometry" />
        </mxCell>
        <mxCell id="zuYzNc_lJ5P3SSd-C0C7-7" value="D+SFT" style="rounded=1;whiteSpace=wrap;html=1;fillColor=#F5F5EE;fontFamily=Open Sans;fontSource=https%3A%2F%2Ffonts.googleapis.com%2Fcss%3Ffamily%3DOpen%2BSans;strokeColor=#333333;fontColor=#1A1A1A;" parent="1" vertex="1">
          <mxGeometry x="180" y="190" width="40" height="30" as="geometry" />
        </mxCell>
        <mxCell id="zuYzNc_lJ5P3SSd-C0C7-8" value="C" style="rounded=1;whiteSpace=wrap;html=1;fillColor=#F5F5EE;fontFamily=Open Sans;fontSource=https%3A%2F%2Ffonts.googleapis.com%2Fcss%3Ffamily%3DOpen%2BSans;strokeColor=#333333;fontColor=#1A1A1A;" parent="1" vertex="1">
          <mxGeometry x="180" y="220" width="40" height="30" as="geometry" />
        </mxCell>
        <mxCell id="zuYzNc_lJ5P3SSd-C0C7-9" value="E" style="rounded=1;whiteSpace=wrap;html=1;fillColor=#F5F5EE;fontFamily=Open Sans;fontSource=https%3A%2F%2Ffonts.googleapis.com%2Fcss%3Ffamily%3DOpen%2BSans;strokeColor=#333333;fontColor=#1A1A1A;" parent="1" vertex="1">
          <mxGeometry x="180" y="160" width="40" height="30" as="geometry" />
        </mxCell>
        <mxCell id="zuYzNc_lJ5P3SSd-C0C7-10" value="F+CTL" style="rounded=1;whiteSpace=wrap;html=1;fillColor=#F5F5EE;fontFamily=Open Sans;fontSource=https%3A%2F%2Ffonts.googleapis.com%2Fcss%3Ffamily%3DOpen%2BSans;strokeColor=#333333;fontColor=#1A1A1A;" parent="1" vertex="1">
          <mxGeometry x="220" y="190" width="40" height="30" as="geometry" />
        </mxCell>
        <mxCell id="zuYzNc_lJ5P3SSd-C0C7-11" value="V" style="rounded=1;whiteSpace=wrap;html=1;fillColor=#F5F5EE;fontFamily=Open Sans;fontSource=https%3A%2F%2Ffonts.googleapis.com%2Fcss%3Ffamily%3DOpen%2BSans;strokeColor=#333333;fontColor=#1A1A1A;" parent="1" vertex="1">
          <mxGeometry x="220" y="220" width="40" height="30" as="geometry" />
        </mxCell>
        <mxCell id="zuYzNc_lJ5P3SSd-C0C7-12" value="R" style="rounded=1;whiteSpace=wrap;html=1;fillColor=#F5F5EE;fontFamily=Open Sans;fontSource=https%3A%2F%2Ffonts.googleapis.com%2Fcss%3Ffamily%3DOpen%2BSans;strokeColor=#333333;fontColor=#1A1A1A;" parent="1" vertex="1">
          <mxGeometry x="220" y="160" width="40" height="30" as="geometry" />
        </mxCell>
        <mxCell id="zuYzNc_lJ5P3SSd-C0C7-13" value="G" style="rounded=1;whiteSpace=wrap;html=1;fillColor=#F5F5EE;fontFamily=Open Sans;fontSource=https%3A%2F%2Ffonts.googleapis.com%2Fcss%3Ffamily%3DOpen%2BSans;strokeColor=#333333;fontColor=#1A1A1A;" parent="1" vertex="1">
          <mxGeometry x="260" y="190" width="40" height="30" as="geometry" />
        </mxCell>
        <mxCell id="zuYzNc_lJ5P3SSd-C0C7-14" value="B" style="rounded=1;whiteSpace=wrap;html=1;fillColor=#F5F5EE;fontFamily=Open Sans;fontSource=https%3A%2F%2Ffonts.googleapis.com%2Fcss%3Ffamily%3DOpen%2BSans;strokeColor=#333333;fontColor=#1A1A1A;" parent="1" vertex="1">
          <mxGeometry x="260" y="220" width="40" height="30" as="geometry" />
        </mxCell>
        <mxCell id="zuYzNc_lJ5P3SSd-C0C7-15" value="T" style="rounded=1;whiteSpace=wrap;html=1;fillColor=#F5F5EE;fontFamily=Open Sans;fontSource=https%3A%2F%2Ffonts.googleapis.com%2Fcss%3Ffamily%3DOpen%2BSans;strokeColor=#333333;fontColor=#1A1A1A;" parent="1" vertex="1">
          <mxGeometry x="260" y="160" width="40" height="30" as="geometry" />
        </mxCell>
        <mxCell id="zuYzNc_lJ5P3SSd-C0C7-16" value="DEL" style="rounded=1;whiteSpace=wrap;html=1;fillColor=#F5F5EE;fontFamily=Open Sans;fontSource=https%3A%2F%2Ffonts.googleapis.com%2Fcss%3Ffamily%3DOpen%2BSans;strokeColor=#333333;fontColor=#1A1A1A;" parent="1" vertex="1">
          <mxGeometry x="180" y="250" width="40" height="30" as="geometry" />
        </mxCell>
        <mxCell id="GVH4jZ6WvnSyrgxlW-XO-13" style="edgeStyle=orthogonalEdgeStyle;rounded=1;jumpStyle=gap;orthogonalLoop=1;jettySize=auto;html=1;exitX=0.5;exitY=1;exitDx=0;exitDy=0;entryX=0.5;entryY=0;entryDx=0;entryDy=0;fontFamily=Open Sans;startSize=3;endArrow=block;endSize=3;strokeColor=#999999;" edge="1" parent="1" source="zuYzNc_lJ5P3SSd-C0C7-17" target="GVH4jZ6WvnSyrgxlW-XO-7">
          <mxGeometry relative="1" as="geometry" />
        </mxCell>
        <mxCell id="zuYzNc_lJ5P3SSd-C0C7-17" value="GO L1" style="rounded=1;whiteSpace=wrap;html=1;fillColor=#F5F5EE;fontFamily=Open Sans;fontSource=https%3A%2F%2Ffonts.googleapis.com%2Fcss%3Ffamily%3DOpen%2BSans;strokeColor=#333333;fontColor=#1A1A1A;" parent="1" vertex="1">
          <mxGeometry x="220" y="250" width="40" height="30" as="geometry" />
        </mxCell>
        <mxCell id="zuYzNc_lJ5P3SSd-C0C7-18" value="&lt;table&gt;&lt;tbody&gt;&lt;tr class=&quot;ztXv9&quot;&gt;&lt;th style=&quot;padding-left:0&quot;&gt;&lt;/th&gt;&lt;th&gt;⎵&lt;/th&gt;&lt;/tr&gt;&lt;/tbody&gt;&lt;/table&gt;" style="rounded=1;whiteSpace=wrap;html=1;fillColor=#F5F5EE;fontFamily=Open Sans;fontSource=https%3A%2F%2Ffonts.googleapis.com%2Fcss%3Ffamily%3DOpen%2BSans;strokeColor=#333333;fontColor=#1A1A1A;align=center;" parent="1" vertex="1">
          <mxGeometry x="260" y="250" width="40" height="30" as="geometry" />
        </mxCell>
        <mxCell id="zuYzNc_lJ5P3SSd-C0C7-19" value="ESC" style="rounded=1;whiteSpace=wrap;html=1;fillColor=#F5F5EE;fontFamily=Open Sans;fontSource=https%3A%2F%2Ffonts.googleapis.com%2Fcss%3Ffamily%3DOpen%2BSans;strokeColor=#333333;fontColor=#1A1A1A;" parent="1" vertex="1">
          <mxGeometry x="300" y="250" width="40" height="30" as="geometry" />
        </mxCell>
        <mxCell id="zuYzNc_lJ5P3SSd-C0C7-20" value="H" style="rounded=1;whiteSpace=wrap;html=1;fillColor=#F5F5EE;fontFamily=Open Sans;fontSource=https%3A%2F%2Ffonts.googleapis.com%2Fcss%3Ffamily%3DOpen%2BSans;strokeColor=#333333;fontColor=#1A1A1A;" parent="1" vertex="1">
          <mxGeometry x="400" y="190" width="40" height="30" as="geometry" />
        </mxCell>
        <mxCell id="zuYzNc_lJ5P3SSd-C0C7-21" value="N" style="rounded=1;whiteSpace=wrap;html=1;fillColor=#F5F5EE;fontFamily=Open Sans;fontSource=https%3A%2F%2Ffonts.googleapis.com%2Fcss%3Ffamily%3DOpen%2BSans;strokeColor=#333333;fontColor=#1A1A1A;" parent="1" vertex="1">
          <mxGeometry x="400" y="220" width="40" height="30" as="geometry" />
        </mxCell>
        <mxCell id="zuYzNc_lJ5P3SSd-C0C7-22" value="Y" style="rounded=1;whiteSpace=wrap;html=1;fillColor=#F5F5EE;fontFamily=Open Sans;fontSource=https%3A%2F%2Ffonts.googleapis.com%2Fcss%3Ffamily%3DOpen%2BSans;strokeColor=#333333;fontColor=#1A1A1A;" parent="1" vertex="1">
          <mxGeometry x="400" y="160" width="40" height="30" as="geometry" />
        </mxCell>
        <mxCell id="zuYzNc_lJ5P3SSd-C0C7-23" value="J+CTL" style="rounded=1;whiteSpace=wrap;html=1;fillColor=#F5F5EE;fontFamily=Open Sans;fontSource=https%3A%2F%2Ffonts.googleapis.com%2Fcss%3Ffamily%3DOpen%2BSans;strokeColor=#333333;fontColor=#1A1A1A;" parent="1" vertex="1">
          <mxGeometry x="440" y="190" width="40" height="30" as="geometry" />
        </mxCell>
        <mxCell id="zuYzNc_lJ5P3SSd-C0C7-24" value="M" style="rounded=1;whiteSpace=wrap;html=1;fillColor=#F5F5EE;fontFamily=Open Sans;fontSource=https%3A%2F%2Ffonts.googleapis.com%2Fcss%3Ffamily%3DOpen%2BSans;strokeColor=#333333;fontColor=#1A1A1A;" parent="1" vertex="1">
          <mxGeometry x="440" y="220" width="40" height="30" as="geometry" />
        </mxCell>
        <mxCell id="zuYzNc_lJ5P3SSd-C0C7-25" value="U" style="rounded=1;whiteSpace=wrap;html=1;fillColor=#F5F5EE;fontFamily=Open Sans;fontSource=https%3A%2F%2Ffonts.googleapis.com%2Fcss%3Ffamily%3DOpen%2BSans;strokeColor=#333333;fontColor=#1A1A1A;" parent="1" vertex="1">
          <mxGeometry x="440" y="160" width="40" height="30" as="geometry" />
        </mxCell>
        <mxCell id="zuYzNc_lJ5P3SSd-C0C7-29" value="↵" style="rounded=1;whiteSpace=wrap;html=1;fillColor=#F5F5EE;fontFamily=Open Sans;fontSource=https%3A%2F%2Ffonts.googleapis.com%2Fcss%3Ffamily%3DOpen%2BSans;strokeColor=#333333;fontColor=#1A1A1A;" parent="1" vertex="1">
          <mxGeometry x="400" y="250" width="40" height="30" as="geometry" />
        </mxCell>
        <mxCell id="GVH4jZ6WvnSyrgxlW-XO-12" style="edgeStyle=orthogonalEdgeStyle;rounded=1;jumpStyle=gap;orthogonalLoop=1;jettySize=auto;html=1;exitX=0.5;exitY=1;exitDx=0;exitDy=0;entryX=0.5;entryY=0;entryDx=0;entryDy=0;fontFamily=Open Sans;startSize=3;endArrow=block;endSize=3;strokeColor=#999999;" edge="1" parent="1" source="zuYzNc_lJ5P3SSd-C0C7-30" target="GVH4jZ6WvnSyrgxlW-XO-9">
          <mxGeometry relative="1" as="geometry" />
        </mxCell>
        <mxCell id="zuYzNc_lJ5P3SSd-C0C7-30" value="GO L2" style="rounded=1;whiteSpace=wrap;html=1;fillColor=#F5F5EE;fontFamily=Open Sans;fontSource=https%3A%2F%2Ffonts.googleapis.com%2Fcss%3Ffamily%3DOpen%2BSans;strokeColor=#333333;fontColor=#1A1A1A;" parent="1" vertex="1">
          <mxGeometry x="440" y="250" width="40" height="30" as="geometry" />
        </mxCell>
        <mxCell id="zuYzNc_lJ5P3SSd-C0C7-32" value="GUI" style="rounded=1;whiteSpace=wrap;html=1;fillColor=#F5F5EE;fontFamily=Open Sans;fontSource=https%3A%2F%2Ffonts.googleapis.com%2Fcss%3Ffamily%3DOpen%2BSans;strokeColor=#333333;fontColor=#1A1A1A;" parent="1" vertex="1">
          <mxGeometry x="360" y="250" width="40" height="30" as="geometry" />
        </mxCell>
        <mxCell id="zuYzNc_lJ5P3SSd-C0C7-36" value="&lt;div&gt;&lt;span style=&quot;background-color: transparent; color: light-dark(rgb(26, 26, 26), rgb(215, 215, 215));&quot;&gt;; :&lt;/span&gt;&lt;br&gt;&lt;/div&gt;" style="rounded=1;whiteSpace=wrap;html=1;fillColor=#F5F5EE;fontFamily=Open Sans;fontSource=https%3A%2F%2Ffonts.googleapis.com%2Fcss%3Ffamily%3DOpen%2BSans;strokeColor=#333333;fontColor=#1A1A1A;" parent="1" vertex="1">
          <mxGeometry x="560" y="190" width="40" height="30" as="geometry" />
        </mxCell>
        <mxCell id="zuYzNc_lJ5P3SSd-C0C7-37" value="/ ?" style="rounded=1;whiteSpace=wrap;html=1;fillColor=#F5F5EE;fontFamily=Open Sans;fontSource=https%3A%2F%2Ffonts.googleapis.com%2Fcss%3Ffamily%3DOpen%2BSans;strokeColor=#333333;fontColor=#1A1A1A;" parent="1" vertex="1">
          <mxGeometry x="560" y="220" width="40" height="30" as="geometry" />
        </mxCell>
        <mxCell id="zuYzNc_lJ5P3SSd-C0C7-38" value="P" style="rounded=1;whiteSpace=wrap;html=1;fillColor=#F5F5EE;fontFamily=Open Sans;fontSource=https%3A%2F%2Ffonts.googleapis.com%2Fcss%3Ffamily%3DOpen%2BSans;strokeColor=#333333;fontColor=#1A1A1A;" parent="1" vertex="1">
          <mxGeometry x="560" y="160" width="40" height="30" as="geometry" />
        </mxCell>
        <mxCell id="zuYzNc_lJ5P3SSd-C0C7-39" value="&#39; &quot;" style="rounded=1;whiteSpace=wrap;html=1;fillColor=#F5F5EE;fontFamily=Open Sans;fontSource=https%3A%2F%2Ffonts.googleapis.com%2Fcss%3Ffamily%3DOpen%2BSans;strokeColor=#333333;fontColor=#1A1A1A;" parent="1" vertex="1">
          <mxGeometry x="600" y="190" width="40" height="30" as="geometry" />
        </mxCell>
        <mxCell id="zuYzNc_lJ5P3SSd-C0C7-40" value="_" style="rounded=1;whiteSpace=wrap;html=1;fillColor=#F5F5EE;fontFamily=Open Sans;fontSource=https%3A%2F%2Ffonts.googleapis.com%2Fcss%3Ffamily%3DOpen%2BSans;strokeColor=#333333;fontColor=#1A1A1A;" parent="1" vertex="1">
          <mxGeometry x="600" y="220" width="40" height="30" as="geometry" />
        </mxCell>
        <mxCell id="zuYzNc_lJ5P3SSd-C0C7-41" value="&lt;font style=&quot;font-size: 10px;&quot;&gt;CTL+Z&lt;/font&gt;&lt;div style=&quot;font-size: 10px;&quot;&gt;&lt;font style=&quot;font-size: 10px;&quot;&gt;CTL+Y&lt;/font&gt;&lt;/div&gt;" style="rounded=1;whiteSpace=wrap;html=1;fillColor=#F5F5EE;fontFamily=Open Sans;fontSource=https%3A%2F%2Ffonts.googleapis.com%2Fcss%3Ffamily%3DOpen%2BSans;fontSize=10;strokeWidth=1;perimeterSpacing=0;glass=0;shadow=0;strokeColor=#333333;fontColor=#1A1A1A;" parent="1" vertex="1">
          <mxGeometry x="310" y="200" width="40" height="40" as="geometry" />
        </mxCell>
        <mxCell id="zuYzNc_lJ5P3SSd-C0C7-42" value="SCR" style="rounded=1;whiteSpace=wrap;html=1;fillColor=#F5F5EE;fontFamily=Open Sans;fontSource=https%3A%2F%2Ffonts.googleapis.com%2Fcss%3Ffamily%3DOpen%2BSans;strokeWidth=1;perimeterSpacing=0;glass=0;shadow=0;strokeColor=#333333;fontColor=#1A1A1A;" parent="1" vertex="1">
          <mxGeometry x="350" y="200" width="40" height="40" as="geometry" />
        </mxCell>
        <mxCell id="zuYzNc_lJ5P3SSd-C0C7-88" value="HOME" style="rounded=1;whiteSpace=wrap;html=1;fillColor=#F5F5EE;fontFamily=Open Sans;fontSource=https%3A%2F%2Ffonts.googleapis.com%2Fcss%3Ffamily%3DOpen%2BSans;strokeColor=#333333;fontColor=#1A1A1A;" parent="1" vertex="1">
          <mxGeometry x="-260" y="420" width="40" height="30" as="geometry" />
        </mxCell>
        <mxCell id="zuYzNc_lJ5P3SSd-C0C7-89" value="END" style="rounded=1;whiteSpace=wrap;html=1;fillColor=#F5F5EE;fontFamily=Open Sans;fontSource=https%3A%2F%2Ffonts.googleapis.com%2Fcss%3Ffamily%3DOpen%2BSans;strokeColor=#333333;fontColor=#1A1A1A;" parent="1" vertex="1">
          <mxGeometry x="-260" y="450" width="40" height="30" as="geometry" />
        </mxCell>
        <mxCell id="zuYzNc_lJ5P3SSd-C0C7-90" value="" style="rounded=1;whiteSpace=wrap;html=1;fillColor=#F5F5EE;fontFamily=Open Sans;fontSource=https%3A%2F%2Ffonts.googleapis.com%2Fcss%3Ffamily%3DOpen%2BSans;strokeColor=#333333;fontColor=#1A1A1A;" parent="1" vertex="1">
          <mxGeometry x="-220" y="420" width="40" height="30" as="geometry" />
        </mxCell>
        <mxCell id="zuYzNc_lJ5P3SSd-C0C7-91" value="CTL+F" style="rounded=1;whiteSpace=wrap;html=1;fillColor=#F5F5EE;fontFamily=Open Sans;fontSource=https%3A%2F%2Ffonts.googleapis.com%2Fcss%3Ffamily%3DOpen%2BSans;strokeColor=#333333;fontColor=#1A1A1A;" parent="1" vertex="1">
          <mxGeometry x="-220" y="450" width="40" height="30" as="geometry" />
        </mxCell>
        <mxCell id="zuYzNc_lJ5P3SSd-C0C7-92" value="" style="rounded=1;whiteSpace=wrap;html=1;fillColor=#F5F5EE;fontFamily=Open Sans;fontSource=https%3A%2F%2Ffonts.googleapis.com%2Fcss%3Ffamily%3DOpen%2BSans;strokeColor=#333333;fontColor=#1A1A1A;" parent="1" vertex="1">
          <mxGeometry x="-220" y="390" width="40" height="30" as="geometry" />
        </mxCell>
        <mxCell id="zuYzNc_lJ5P3SSd-C0C7-93" value="&lt;span style=&quot;font-family: Consolas, Courier, monospace, serif, EmojiFont; font-size: 16px; text-align: start; white-space: pre;&quot;&gt;←&lt;/span&gt;" style="rounded=1;whiteSpace=wrap;html=1;fillColor=#F5F5EE;fontFamily=Open Sans;fontSource=https%3A%2F%2Ffonts.googleapis.com%2Fcss%3Ffamily%3DOpen%2BSans;strokeColor=#333333;fontColor=#1A1A1A;" parent="1" vertex="1">
          <mxGeometry x="-180" y="420" width="40" height="30" as="geometry" />
        </mxCell>
        <mxCell id="zuYzNc_lJ5P3SSd-C0C7-94" value="CTL+X" style="rounded=1;whiteSpace=wrap;html=1;fillColor=#F5F5EE;fontFamily=Open Sans;fontSource=https%3A%2F%2Ffonts.googleapis.com%2Fcss%3Ffamily%3DOpen%2BSans;strokeColor=#333333;fontColor=#1A1A1A;" parent="1" vertex="1">
          <mxGeometry x="-180" y="450" width="40" height="30" as="geometry" />
        </mxCell>
        <mxCell id="zuYzNc_lJ5P3SSd-C0C7-95" value="GP&lt;span style=&quot;font-family: Consolas, Courier, monospace, serif, EmojiFont; font-size: 16px; text-align: start; white-space: pre;&quot;&gt;↓&lt;/span&gt;" style="rounded=1;whiteSpace=wrap;html=1;fillColor=#F5F5EE;fontFamily=Open Sans;fontSource=https%3A%2F%2Ffonts.googleapis.com%2Fcss%3Ffamily%3DOpen%2BSans;strokeColor=#333333;fontColor=#1A1A1A;" parent="1" vertex="1">
          <mxGeometry x="-180" y="390" width="40" height="30" as="geometry" />
        </mxCell>
        <mxCell id="zuYzNc_lJ5P3SSd-C0C7-96" value="&lt;span style=&quot;font-family: Consolas, Courier, monospace, serif, EmojiFont; font-size: 16px; text-align: start; white-space: pre;&quot;&gt;↓&lt;/span&gt;" style="rounded=1;whiteSpace=wrap;html=1;fillColor=#F5F5EE;fontFamily=Open Sans;fontSource=https%3A%2F%2Ffonts.googleapis.com%2Fcss%3Ffamily%3DOpen%2BSans;strokeColor=#333333;fontColor=#1A1A1A;" parent="1" vertex="1">
          <mxGeometry x="-140" y="420" width="40" height="30" as="geometry" />
        </mxCell>
        <mxCell id="zuYzNc_lJ5P3SSd-C0C7-97" value="CTL+C" style="rounded=1;whiteSpace=wrap;html=1;fillColor=#F5F5EE;fontFamily=Open Sans;fontSource=https%3A%2F%2Ffonts.googleapis.com%2Fcss%3Ffamily%3DOpen%2BSans;strokeColor=#333333;fontColor=#1A1A1A;" parent="1" vertex="1">
          <mxGeometry x="-140" y="450" width="40" height="30" as="geometry" />
        </mxCell>
        <mxCell id="zuYzNc_lJ5P3SSd-C0C7-98" value="&lt;span style=&quot;font-family: Consolas, Courier, monospace, serif, EmojiFont; font-size: 16px; text-align: start; white-space: pre;&quot;&gt;↑&lt;/span&gt;" style="rounded=1;whiteSpace=wrap;html=1;fillColor=#F5F5EE;fontFamily=Open Sans;fontSource=https%3A%2F%2Ffonts.googleapis.com%2Fcss%3Ffamily%3DOpen%2BSans;strokeColor=#333333;fontColor=#1A1A1A;" parent="1" vertex="1">
          <mxGeometry x="-140" y="390" width="40" height="30" as="geometry" />
        </mxCell>
        <mxCell id="zuYzNc_lJ5P3SSd-C0C7-99" value="&lt;span style=&quot;font-family: Consolas, Courier, monospace, serif, EmojiFont; font-size: 16px; text-align: start; white-space: pre;&quot;&gt;→&lt;/span&gt;" style="rounded=1;whiteSpace=wrap;html=1;fillColor=#F5F5EE;fontFamily=Open Sans;fontSource=https%3A%2F%2Ffonts.googleapis.com%2Fcss%3Ffamily%3DOpen%2BSans;strokeColor=#333333;fontColor=#1A1A1A;" parent="1" vertex="1">
          <mxGeometry x="-100" y="420" width="40" height="30" as="geometry" />
        </mxCell>
        <mxCell id="zuYzNc_lJ5P3SSd-C0C7-100" value="CTL+V" style="rounded=1;whiteSpace=wrap;html=1;fillColor=#F5F5EE;fontFamily=Open Sans;fontSource=https%3A%2F%2Ffonts.googleapis.com%2Fcss%3Ffamily%3DOpen%2BSans;strokeColor=#333333;fontColor=#1A1A1A;" parent="1" vertex="1">
          <mxGeometry x="-100" y="450" width="40" height="30" as="geometry" />
        </mxCell>
        <mxCell id="zuYzNc_lJ5P3SSd-C0C7-101" value="PG&lt;span style=&quot;font-family: Consolas, Courier, monospace, serif, EmojiFont; font-size: 16px; text-align: start; white-space: pre;&quot;&gt;↑&lt;/span&gt;" style="rounded=1;whiteSpace=wrap;html=1;fillColor=#F5F5EE;fontFamily=Open Sans;fontSource=https%3A%2F%2Ffonts.googleapis.com%2Fcss%3Ffamily%3DOpen%2BSans;strokeColor=#333333;fontColor=#1A1A1A;" parent="1" vertex="1">
          <mxGeometry x="-100" y="390" width="40" height="30" as="geometry" />
        </mxCell>
        <mxCell id="zuYzNc_lJ5P3SSd-C0C7-102" value="(" style="rounded=1;whiteSpace=wrap;html=1;fillColor=#F5F5EE;fontFamily=Open Sans;fontSource=https%3A%2F%2Ffonts.googleapis.com%2Fcss%3Ffamily%3DOpen%2BSans;strokeColor=#333333;fontColor=#1A1A1A;" parent="1" vertex="1">
          <mxGeometry x="-60" y="420" width="40" height="30" as="geometry" />
        </mxCell>
        <mxCell id="zuYzNc_lJ5P3SSd-C0C7-103" value="[" style="rounded=1;whiteSpace=wrap;html=1;fillColor=#F5F5EE;fontFamily=Open Sans;fontSource=https%3A%2F%2Ffonts.googleapis.com%2Fcss%3Ffamily%3DOpen%2BSans;strokeColor=#333333;fontColor=#1A1A1A;" parent="1" vertex="1">
          <mxGeometry x="-60" y="450" width="40" height="30" as="geometry" />
        </mxCell>
        <mxCell id="zuYzNc_lJ5P3SSd-C0C7-104" value="{" style="rounded=1;whiteSpace=wrap;html=1;fillColor=#F5F5EE;fontFamily=Open Sans;fontSource=https%3A%2F%2Ffonts.googleapis.com%2Fcss%3Ffamily%3DOpen%2BSans;strokeColor=#333333;fontColor=#1A1A1A;" parent="1" vertex="1">
          <mxGeometry x="-60" y="390" width="40" height="30" as="geometry" />
        </mxCell>
        <mxCell id="zuYzNc_lJ5P3SSd-C0C7-105" value="DEL" style="rounded=1;whiteSpace=wrap;html=1;fillColor=#F5F5EE;fontFamily=Open Sans;fontSource=https%3A%2F%2Ffonts.googleapis.com%2Fcss%3Ffamily%3DOpen%2BSans;strokeColor=#333333;fontColor=#1A1A1A;" parent="1" vertex="1">
          <mxGeometry x="-140" y="480" width="40" height="30" as="geometry" />
        </mxCell>
        <mxCell id="zuYzNc_lJ5P3SSd-C0C7-106" value="&lt;span style=&quot;font-family: Consolas, Courier, monospace, serif, EmojiFont; font-size: 16px; text-align: start; white-space: pre;&quot;&gt;▼&lt;/span&gt;" style="rounded=1;whiteSpace=wrap;html=1;fillColor=#F5F5EE;fontFamily=Open Sans;fontSource=https%3A%2F%2Ffonts.googleapis.com%2Fcss%3Ffamily%3DOpen%2BSans;strokeColor=#333333;fontColor=#1A1A1A;" parent="1" vertex="1">
          <mxGeometry x="-100" y="480" width="40" height="30" as="geometry" />
        </mxCell>
        <mxCell id="zuYzNc_lJ5P3SSd-C0C7-107" value="&lt;table&gt;&lt;tbody&gt;&lt;tr class=&quot;ztXv9&quot;&gt;&lt;th style=&quot;padding-left: 0px;&quot;&gt;&lt;/th&gt;&lt;th&gt;⎵&lt;/th&gt;&lt;/tr&gt;&lt;/tbody&gt;&lt;/table&gt;" style="rounded=1;whiteSpace=wrap;html=1;fillColor=#F5F5EE;fontFamily=Open Sans;fontSource=https%3A%2F%2Ffonts.googleapis.com%2Fcss%3Ffamily%3DOpen%2BSans;strokeColor=#333333;fontColor=#1A1A1A;" parent="1" vertex="1">
          <mxGeometry x="-60" y="480" width="40" height="30" as="geometry" />
        </mxCell>
        <mxCell id="zuYzNc_lJ5P3SSd-C0C7-108" value="ESC" style="rounded=1;whiteSpace=wrap;html=1;fillColor=#F5F5EE;fontFamily=Open Sans;fontSource=https%3A%2F%2Ffonts.googleapis.com%2Fcss%3Ffamily%3DOpen%2BSans;strokeColor=#333333;fontColor=#1A1A1A;" parent="1" vertex="1">
          <mxGeometry x="-20" y="480" width="40" height="30" as="geometry" />
        </mxCell>
        <mxCell id="zuYzNc_lJ5P3SSd-C0C7-109" value=")" style="rounded=1;whiteSpace=wrap;html=1;fillColor=#F5F5EE;fontFamily=Open Sans;fontSource=https%3A%2F%2Ffonts.googleapis.com%2Fcss%3Ffamily%3DOpen%2BSans;strokeColor=#333333;fontColor=#1A1A1A;" parent="1" vertex="1">
          <mxGeometry x="80" y="420" width="40" height="30" as="geometry" />
        </mxCell>
        <mxCell id="zuYzNc_lJ5P3SSd-C0C7-110" value="]" style="rounded=1;whiteSpace=wrap;html=1;fillColor=#F5F5EE;fontFamily=Open Sans;fontSource=https%3A%2F%2Ffonts.googleapis.com%2Fcss%3Ffamily%3DOpen%2BSans;strokeColor=#333333;fontColor=#1A1A1A;" parent="1" vertex="1">
          <mxGeometry x="80" y="450" width="40" height="30" as="geometry" />
        </mxCell>
        <mxCell id="zuYzNc_lJ5P3SSd-C0C7-111" value="}" style="rounded=1;whiteSpace=wrap;html=1;fillColor=#F5F5EE;fontFamily=Open Sans;fontSource=https%3A%2F%2Ffonts.googleapis.com%2Fcss%3Ffamily%3DOpen%2BSans;strokeColor=#333333;fontColor=#1A1A1A;" parent="1" vertex="1">
          <mxGeometry x="80" y="390" width="40" height="30" as="geometry" />
        </mxCell>
        <mxCell id="zuYzNc_lJ5P3SSd-C0C7-112" value="=" style="rounded=1;whiteSpace=wrap;html=1;fillColor=#F5F5EE;fontFamily=Open Sans;fontSource=https%3A%2F%2Ffonts.googleapis.com%2Fcss%3Ffamily%3DOpen%2BSans;strokeColor=#333333;fontColor=#1A1A1A;" parent="1" vertex="1">
          <mxGeometry x="120" y="420" width="40" height="30" as="geometry" />
        </mxCell>
        <mxCell id="zuYzNc_lJ5P3SSd-C0C7-113" value="" style="rounded=1;whiteSpace=wrap;html=1;fillColor=#F5F5EE;fontFamily=Open Sans;fontSource=https%3A%2F%2Ffonts.googleapis.com%2Fcss%3Ffamily%3DOpen%2BSans;strokeColor=#333333;fontColor=#1A1A1A;" parent="1" vertex="1">
          <mxGeometry x="120" y="450" width="40" height="30" as="geometry" />
        </mxCell>
        <mxCell id="zuYzNc_lJ5P3SSd-C0C7-114" value="" style="rounded=1;whiteSpace=wrap;html=1;fillColor=#F5F5EE;fontFamily=Open Sans;fontSource=https%3A%2F%2Ffonts.googleapis.com%2Fcss%3Ffamily%3DOpen%2BSans;strokeColor=#333333;fontColor=#1A1A1A;" parent="1" vertex="1">
          <mxGeometry x="120" y="390" width="40" height="30" as="geometry" />
        </mxCell>
        <mxCell id="zuYzNc_lJ5P3SSd-C0C7-115" value="-" style="rounded=1;whiteSpace=wrap;html=1;fillColor=#F5F5EE;fontFamily=Open Sans;fontSource=https%3A%2F%2Ffonts.googleapis.com%2Fcss%3Ffamily%3DOpen%2BSans;strokeColor=#333333;fontColor=#1A1A1A;" parent="1" vertex="1">
          <mxGeometry x="160" y="420" width="40" height="30" as="geometry" />
        </mxCell>
        <mxCell id="zuYzNc_lJ5P3SSd-C0C7-116" value="" style="rounded=1;whiteSpace=wrap;html=1;fillColor=#F5F5EE;fontFamily=Open Sans;fontSource=https%3A%2F%2Ffonts.googleapis.com%2Fcss%3Ffamily%3DOpen%2BSans;strokeColor=#333333;fontColor=#1A1A1A;" parent="1" vertex="1">
          <mxGeometry x="160" y="450" width="40" height="30" as="geometry" />
        </mxCell>
        <mxCell id="zuYzNc_lJ5P3SSd-C0C7-117" value="" style="rounded=1;whiteSpace=wrap;html=1;fillColor=#F5F5EE;fontFamily=Open Sans;fontSource=https%3A%2F%2Ffonts.googleapis.com%2Fcss%3Ffamily%3DOpen%2BSans;strokeColor=#333333;fontColor=#1A1A1A;" parent="1" vertex="1">
          <mxGeometry x="160" y="390" width="40" height="30" as="geometry" />
        </mxCell>
        <mxCell id="zuYzNc_lJ5P3SSd-C0C7-118" value="↵" style="rounded=1;whiteSpace=wrap;html=1;fillColor=#F5F5EE;fontFamily=Open Sans;fontSource=https%3A%2F%2Ffonts.googleapis.com%2Fcss%3Ffamily%3DOpen%2BSans;strokeColor=#333333;fontColor=#1A1A1A;" parent="1" vertex="1">
          <mxGeometry x="80" y="480" width="40" height="30" as="geometry" />
        </mxCell>
        <mxCell id="GVH4jZ6WvnSyrgxlW-XO-14" style="edgeStyle=orthogonalEdgeStyle;rounded=1;jumpStyle=gap;orthogonalLoop=1;jettySize=auto;html=1;exitX=0.5;exitY=1;exitDx=0;exitDy=0;entryX=0.5;entryY=0;entryDx=0;entryDy=0;fontFamily=Open Sans;startSize=3;endArrow=block;endSize=3;strokeColor=#999999;" edge="1" parent="1" source="zuYzNc_lJ5P3SSd-C0C7-119" target="GVH4jZ6WvnSyrgxlW-XO-10">
          <mxGeometry relative="1" as="geometry" />
        </mxCell>
        <mxCell id="zuYzNc_lJ5P3SSd-C0C7-119" value="GO L3" style="rounded=1;whiteSpace=wrap;html=1;fillColor=#F5F5EE;fontFamily=Open Sans;fontSource=https%3A%2F%2Ffonts.googleapis.com%2Fcss%3Ffamily%3DOpen%2BSans;strokeColor=#333333;fontColor=#1A1A1A;" parent="1" vertex="1">
          <mxGeometry x="120" y="480" width="40" height="30" as="geometry" />
        </mxCell>
        <mxCell id="zuYzNc_lJ5P3SSd-C0C7-120" value="" style="rounded=1;whiteSpace=wrap;html=1;fillColor=#F5F5EE;fontFamily=Open Sans;fontSource=https%3A%2F%2Ffonts.googleapis.com%2Fcss%3Ffamily%3DOpen%2BSans;strokeColor=#333333;fontColor=#1A1A1A;" parent="1" vertex="1">
          <mxGeometry x="160" y="480" width="40" height="30" as="geometry" />
        </mxCell>
        <mxCell id="zuYzNc_lJ5P3SSd-C0C7-121" value="GUI" style="rounded=1;whiteSpace=wrap;html=1;fillColor=#F5F5EE;fontFamily=Open Sans;fontSource=https%3A%2F%2Ffonts.googleapis.com%2Fcss%3Ffamily%3DOpen%2BSans;strokeColor=#333333;fontColor=#1A1A1A;" parent="1" vertex="1">
          <mxGeometry x="40" y="480" width="40" height="30" as="geometry" />
        </mxCell>
        <mxCell id="zuYzNc_lJ5P3SSd-C0C7-122" value="+" style="rounded=1;whiteSpace=wrap;html=1;fillColor=#F5F5EE;fontFamily=Open Sans;fontSource=https%3A%2F%2Ffonts.googleapis.com%2Fcss%3Ffamily%3DOpen%2BSans;strokeColor=#333333;fontColor=#1A1A1A;" parent="1" vertex="1">
          <mxGeometry x="200" y="420" width="40" height="30" as="geometry" />
        </mxCell>
        <mxCell id="zuYzNc_lJ5P3SSd-C0C7-123" value="" style="rounded=1;whiteSpace=wrap;html=1;fillColor=#F5F5EE;fontFamily=Open Sans;fontSource=https%3A%2F%2Ffonts.googleapis.com%2Fcss%3Ffamily%3DOpen%2BSans;strokeColor=#333333;fontColor=#1A1A1A;" parent="1" vertex="1">
          <mxGeometry x="200" y="450" width="40" height="30" as="geometry" />
        </mxCell>
        <mxCell id="zuYzNc_lJ5P3SSd-C0C7-124" value="" style="rounded=1;whiteSpace=wrap;html=1;fillColor=#F5F5EE;fontFamily=Open Sans;fontSource=https%3A%2F%2Ffonts.googleapis.com%2Fcss%3Ffamily%3DOpen%2BSans;strokeColor=#333333;fontColor=#1A1A1A;" parent="1" vertex="1">
          <mxGeometry x="200" y="390" width="40" height="30" as="geometry" />
        </mxCell>
        <mxCell id="zuYzNc_lJ5P3SSd-C0C7-125" value="\" style="rounded=1;whiteSpace=wrap;html=1;fillColor=#F5F5EE;fontFamily=Open Sans;fontSource=https%3A%2F%2Ffonts.googleapis.com%2Fcss%3Ffamily%3DOpen%2BSans;strokeColor=#333333;fontColor=#1A1A1A;" parent="1" vertex="1">
          <mxGeometry x="240" y="420" width="40" height="30" as="geometry" />
        </mxCell>
        <mxCell id="zuYzNc_lJ5P3SSd-C0C7-126" value="|" style="rounded=1;whiteSpace=wrap;html=1;fillColor=#F5F5EE;fontFamily=Open Sans;fontSource=https%3A%2F%2Ffonts.googleapis.com%2Fcss%3Ffamily%3DOpen%2BSans;strokeColor=#333333;fontColor=#1A1A1A;" parent="1" vertex="1">
          <mxGeometry x="240" y="450" width="40" height="30" as="geometry" />
        </mxCell>
        <mxCell id="zuYzNc_lJ5P3SSd-C0C7-127" value="" style="rounded=1;whiteSpace=wrap;html=1;fillColor=#F5F5EE;fontFamily=Open Sans;fontSource=https%3A%2F%2Ffonts.googleapis.com%2Fcss%3Ffamily%3DOpen%2BSans;strokeColor=#333333;fontColor=#1A1A1A;" parent="1" vertex="1">
          <mxGeometry x="240" y="390" width="40" height="30" as="geometry" />
        </mxCell>
        <mxCell id="zuYzNc_lJ5P3SSd-C0C7-128" value="&#39;" style="rounded=1;whiteSpace=wrap;html=1;fillColor=#F5F5EE;fontFamily=Open Sans;fontSource=https%3A%2F%2Ffonts.googleapis.com%2Fcss%3Ffamily%3DOpen%2BSans;strokeColor=#333333;fontColor=#1A1A1A;" parent="1" vertex="1">
          <mxGeometry x="280" y="420" width="40" height="30" as="geometry" />
        </mxCell>
        <mxCell id="zuYzNc_lJ5P3SSd-C0C7-129" value="" style="rounded=1;whiteSpace=wrap;html=1;fillColor=#F5F5EE;fontFamily=Open Sans;fontSource=https%3A%2F%2Ffonts.googleapis.com%2Fcss%3Ffamily%3DOpen%2BSans;strokeColor=#333333;fontColor=#1A1A1A;" parent="1" vertex="1">
          <mxGeometry x="280" y="450" width="40" height="30" as="geometry" />
        </mxCell>
        <mxCell id="zuYzNc_lJ5P3SSd-C0C7-132" value="`" style="rounded=1;whiteSpace=wrap;html=1;fillColor=#F5F5EE;fontFamily=Open Sans;fontSource=https%3A%2F%2Ffonts.googleapis.com%2Fcss%3Ffamily%3DOpen%2BSans;strokeColor=#333333;fontColor=#1A1A1A;" parent="1" vertex="1">
          <mxGeometry x="380" y="420" width="40" height="30" as="geometry" />
        </mxCell>
        <mxCell id="zuYzNc_lJ5P3SSd-C0C7-133" value="" style="rounded=1;whiteSpace=wrap;html=1;fillColor=#F5F5EE;fontFamily=Open Sans;fontSource=https%3A%2F%2Ffonts.googleapis.com%2Fcss%3Ffamily%3DOpen%2BSans;strokeColor=#333333;fontColor=#1A1A1A;" parent="1" vertex="1">
          <mxGeometry x="380" y="450" width="40" height="30" as="geometry" />
        </mxCell>
        <mxCell id="zuYzNc_lJ5P3SSd-C0C7-134" value="1" style="rounded=1;whiteSpace=wrap;html=1;fillColor=#F5F5EE;fontFamily=Open Sans;fontSource=https%3A%2F%2Ffonts.googleapis.com%2Fcss%3Ffamily%3DOpen%2BSans;strokeColor=#333333;fontColor=#1A1A1A;" parent="1" vertex="1">
          <mxGeometry x="420" y="420" width="40" height="30" as="geometry" />
        </mxCell>
        <mxCell id="zuYzNc_lJ5P3SSd-C0C7-135" value="" style="rounded=1;whiteSpace=wrap;html=1;fillColor=#F5F5EE;fontFamily=Open Sans;fontSource=https%3A%2F%2Ffonts.googleapis.com%2Fcss%3Ffamily%3DOpen%2BSans;strokeColor=#333333;fontColor=#1A1A1A;" parent="1" vertex="1">
          <mxGeometry x="420" y="450" width="40" height="30" as="geometry" />
        </mxCell>
        <mxCell id="zuYzNc_lJ5P3SSd-C0C7-136" value="!" style="rounded=1;whiteSpace=wrap;html=1;fillColor=#F5F5EE;fontFamily=Open Sans;fontSource=https%3A%2F%2Ffonts.googleapis.com%2Fcss%3Ffamily%3DOpen%2BSans;strokeColor=#333333;fontColor=#1A1A1A;" parent="1" vertex="1">
          <mxGeometry x="420" y="390" width="40" height="30" as="geometry" />
        </mxCell>
        <mxCell id="zuYzNc_lJ5P3SSd-C0C7-137" value="2" style="rounded=1;whiteSpace=wrap;html=1;fillColor=#F5F5EE;fontFamily=Open Sans;fontSource=https%3A%2F%2Ffonts.googleapis.com%2Fcss%3Ffamily%3DOpen%2BSans;strokeColor=#333333;fontColor=#1A1A1A;" parent="1" vertex="1">
          <mxGeometry x="460" y="420" width="40" height="30" as="geometry" />
        </mxCell>
        <mxCell id="zuYzNc_lJ5P3SSd-C0C7-138" value="" style="rounded=1;whiteSpace=wrap;html=1;fillColor=#F5F5EE;fontFamily=Open Sans;fontSource=https%3A%2F%2Ffonts.googleapis.com%2Fcss%3Ffamily%3DOpen%2BSans;strokeColor=#333333;fontColor=#1A1A1A;" parent="1" vertex="1">
          <mxGeometry x="460" y="450" width="40" height="30" as="geometry" />
        </mxCell>
        <mxCell id="zuYzNc_lJ5P3SSd-C0C7-139" value="@" style="rounded=1;whiteSpace=wrap;html=1;fillColor=#F5F5EE;fontFamily=Open Sans;fontSource=https%3A%2F%2Ffonts.googleapis.com%2Fcss%3Ffamily%3DOpen%2BSans;strokeColor=#333333;fontColor=#1A1A1A;" parent="1" vertex="1">
          <mxGeometry x="460" y="390" width="40" height="30" as="geometry" />
        </mxCell>
        <mxCell id="zuYzNc_lJ5P3SSd-C0C7-140" value="3" style="rounded=1;whiteSpace=wrap;html=1;fillColor=#F5F5EE;fontFamily=Open Sans;fontSource=https%3A%2F%2Ffonts.googleapis.com%2Fcss%3Ffamily%3DOpen%2BSans;strokeColor=#333333;fontColor=#1A1A1A;" parent="1" vertex="1">
          <mxGeometry x="500" y="420" width="40" height="30" as="geometry" />
        </mxCell>
        <mxCell id="zuYzNc_lJ5P3SSd-C0C7-141" value="" style="rounded=1;whiteSpace=wrap;html=1;fillColor=#F5F5EE;fontFamily=Open Sans;fontSource=https%3A%2F%2Ffonts.googleapis.com%2Fcss%3Ffamily%3DOpen%2BSans;strokeColor=#333333;fontColor=#1A1A1A;" parent="1" vertex="1">
          <mxGeometry x="500" y="450" width="40" height="30" as="geometry" />
        </mxCell>
        <mxCell id="zuYzNc_lJ5P3SSd-C0C7-142" value="#" style="rounded=1;whiteSpace=wrap;html=1;fillColor=#F5F5EE;fontFamily=Open Sans;fontSource=https%3A%2F%2Ffonts.googleapis.com%2Fcss%3Ffamily%3DOpen%2BSans;strokeColor=#333333;fontColor=#1A1A1A;" parent="1" vertex="1">
          <mxGeometry x="500" y="390" width="40" height="30" as="geometry" />
        </mxCell>
        <mxCell id="zuYzNc_lJ5P3SSd-C0C7-143" value="4" style="rounded=1;whiteSpace=wrap;html=1;fillColor=#F5F5EE;fontFamily=Open Sans;fontSource=https%3A%2F%2Ffonts.googleapis.com%2Fcss%3Ffamily%3DOpen%2BSans;strokeColor=#333333;fontColor=#1A1A1A;" parent="1" vertex="1">
          <mxGeometry x="540" y="420" width="40" height="30" as="geometry" />
        </mxCell>
        <mxCell id="zuYzNc_lJ5P3SSd-C0C7-144" value="" style="rounded=1;whiteSpace=wrap;html=1;fillColor=#F5F5EE;fontFamily=Open Sans;fontSource=https%3A%2F%2Ffonts.googleapis.com%2Fcss%3Ffamily%3DOpen%2BSans;strokeColor=#333333;fontColor=#1A1A1A;" parent="1" vertex="1">
          <mxGeometry x="540" y="450" width="40" height="30" as="geometry" />
        </mxCell>
        <mxCell id="zuYzNc_lJ5P3SSd-C0C7-145" value="$" style="rounded=1;whiteSpace=wrap;html=1;fillColor=#F5F5EE;fontFamily=Open Sans;fontSource=https%3A%2F%2Ffonts.googleapis.com%2Fcss%3Ffamily%3DOpen%2BSans;strokeColor=#333333;fontColor=#1A1A1A;" parent="1" vertex="1">
          <mxGeometry x="540" y="390" width="40" height="30" as="geometry" />
        </mxCell>
        <mxCell id="zuYzNc_lJ5P3SSd-C0C7-146" value="5" style="rounded=1;whiteSpace=wrap;html=1;fillColor=#F5F5EE;fontFamily=Open Sans;fontSource=https%3A%2F%2Ffonts.googleapis.com%2Fcss%3Ffamily%3DOpen%2BSans;strokeColor=#333333;fontColor=#1A1A1A;" parent="1" vertex="1">
          <mxGeometry x="580" y="420" width="40" height="30" as="geometry" />
        </mxCell>
        <mxCell id="zuYzNc_lJ5P3SSd-C0C7-147" value="" style="rounded=1;whiteSpace=wrap;html=1;fillColor=#F5F5EE;fontFamily=Open Sans;fontSource=https%3A%2F%2Ffonts.googleapis.com%2Fcss%3Ffamily%3DOpen%2BSans;strokeColor=#333333;fontColor=#1A1A1A;" parent="1" vertex="1">
          <mxGeometry x="580" y="450" width="40" height="30" as="geometry" />
        </mxCell>
        <mxCell id="zuYzNc_lJ5P3SSd-C0C7-148" value="%" style="rounded=1;whiteSpace=wrap;html=1;fillColor=#F5F5EE;fontFamily=Open Sans;fontSource=https%3A%2F%2Ffonts.googleapis.com%2Fcss%3Ffamily%3DOpen%2BSans;strokeColor=#333333;fontColor=#1A1A1A;" parent="1" vertex="1">
          <mxGeometry x="580" y="390" width="40" height="30" as="geometry" />
        </mxCell>
        <mxCell id="zuYzNc_lJ5P3SSd-C0C7-149" value="" style="rounded=1;whiteSpace=wrap;html=1;fillColor=#F5F5EE;fontFamily=Open Sans;fontSource=https%3A%2F%2Ffonts.googleapis.com%2Fcss%3Ffamily%3DOpen%2BSans;strokeColor=#333333;fontColor=#1A1A1A;" parent="1" vertex="1">
          <mxGeometry x="500" y="480" width="40" height="30" as="geometry" />
        </mxCell>
        <mxCell id="GVH4jZ6WvnSyrgxlW-XO-15" style="edgeStyle=orthogonalEdgeStyle;rounded=1;jumpStyle=gap;orthogonalLoop=1;jettySize=auto;html=1;exitX=0.5;exitY=1;exitDx=0;exitDy=0;entryX=0.5;entryY=0;entryDx=0;entryDy=0;fontFamily=Open Sans;startSize=3;endArrow=block;endSize=3;strokeColor=#999999;" edge="1" parent="1" source="zuYzNc_lJ5P3SSd-C0C7-150" target="GVH4jZ6WvnSyrgxlW-XO-10">
          <mxGeometry relative="1" as="geometry" />
        </mxCell>
        <mxCell id="zuYzNc_lJ5P3SSd-C0C7-150" value="GO L3" style="rounded=1;whiteSpace=wrap;html=1;fillColor=#F5F5EE;fontFamily=Open Sans;fontSource=https%3A%2F%2Ffonts.googleapis.com%2Fcss%3Ffamily%3DOpen%2BSans;strokeColor=#333333;fontColor=#1A1A1A;" parent="1" vertex="1">
          <mxGeometry x="540" y="480" width="40" height="30" as="geometry" />
        </mxCell>
        <mxCell id="zuYzNc_lJ5P3SSd-C0C7-151" value="&lt;table&gt;&lt;tbody&gt;&lt;tr class=&quot;ztXv9&quot;&gt;&lt;th style=&quot;padding-left: 0px;&quot;&gt;&lt;/th&gt;&lt;th&gt;⎵&lt;/th&gt;&lt;/tr&gt;&lt;/tbody&gt;&lt;/table&gt;" style="rounded=1;whiteSpace=wrap;html=1;fillColor=#F5F5EE;fontFamily=Open Sans;fontSource=https%3A%2F%2Ffonts.googleapis.com%2Fcss%3Ffamily%3DOpen%2BSans;strokeColor=#333333;fontColor=#1A1A1A;" parent="1" vertex="1">
          <mxGeometry x="580" y="480" width="40" height="30" as="geometry" />
        </mxCell>
        <mxCell id="zuYzNc_lJ5P3SSd-C0C7-152" value="ESC" style="rounded=1;whiteSpace=wrap;html=1;fillColor=#F5F5EE;fontFamily=Open Sans;fontSource=https%3A%2F%2Ffonts.googleapis.com%2Fcss%3Ffamily%3DOpen%2BSans;strokeColor=#333333;fontColor=#1A1A1A;" parent="1" vertex="1">
          <mxGeometry x="620" y="480" width="40" height="30" as="geometry" />
        </mxCell>
        <mxCell id="zuYzNc_lJ5P3SSd-C0C7-153" value="6" style="rounded=1;whiteSpace=wrap;html=1;fillColor=#F5F5EE;fontFamily=Open Sans;fontSource=https%3A%2F%2Ffonts.googleapis.com%2Fcss%3Ffamily%3DOpen%2BSans;strokeColor=#333333;fontColor=#1A1A1A;" parent="1" vertex="1">
          <mxGeometry x="720" y="420" width="40" height="30" as="geometry" />
        </mxCell>
        <mxCell id="zuYzNc_lJ5P3SSd-C0C7-154" value="" style="rounded=1;whiteSpace=wrap;html=1;fillColor=#F5F5EE;fontFamily=Open Sans;fontSource=https%3A%2F%2Ffonts.googleapis.com%2Fcss%3Ffamily%3DOpen%2BSans;strokeColor=#333333;fontColor=#1A1A1A;" parent="1" vertex="1">
          <mxGeometry x="720" y="450" width="40" height="30" as="geometry" />
        </mxCell>
        <mxCell id="zuYzNc_lJ5P3SSd-C0C7-155" value="^" style="rounded=1;whiteSpace=wrap;html=1;fillColor=#F5F5EE;fontFamily=Open Sans;fontSource=https%3A%2F%2Ffonts.googleapis.com%2Fcss%3Ffamily%3DOpen%2BSans;strokeColor=#333333;fontColor=#1A1A1A;" parent="1" vertex="1">
          <mxGeometry x="720" y="390" width="40" height="30" as="geometry" />
        </mxCell>
        <mxCell id="zuYzNc_lJ5P3SSd-C0C7-156" value="7" style="rounded=1;whiteSpace=wrap;html=1;fillColor=#F5F5EE;fontFamily=Open Sans;fontSource=https%3A%2F%2Ffonts.googleapis.com%2Fcss%3Ffamily%3DOpen%2BSans;strokeColor=#333333;fontColor=#1A1A1A;" parent="1" vertex="1">
          <mxGeometry x="760" y="420" width="40" height="30" as="geometry" />
        </mxCell>
        <mxCell id="zuYzNc_lJ5P3SSd-C0C7-157" value="" style="rounded=1;whiteSpace=wrap;html=1;fillColor=#F5F5EE;fontFamily=Open Sans;fontSource=https%3A%2F%2Ffonts.googleapis.com%2Fcss%3Ffamily%3DOpen%2BSans;strokeColor=#333333;fontColor=#1A1A1A;" parent="1" vertex="1">
          <mxGeometry x="760" y="450" width="40" height="30" as="geometry" />
        </mxCell>
        <mxCell id="zuYzNc_lJ5P3SSd-C0C7-158" value="&amp;amp;" style="rounded=1;whiteSpace=wrap;html=1;fillColor=#F5F5EE;fontFamily=Open Sans;fontSource=https%3A%2F%2Ffonts.googleapis.com%2Fcss%3Ffamily%3DOpen%2BSans;strokeColor=#333333;fontColor=#1A1A1A;" parent="1" vertex="1">
          <mxGeometry x="760" y="390" width="40" height="30" as="geometry" />
        </mxCell>
        <mxCell id="zuYzNc_lJ5P3SSd-C0C7-159" value="8" style="rounded=1;whiteSpace=wrap;html=1;fillColor=#F5F5EE;fontFamily=Open Sans;fontSource=https%3A%2F%2Ffonts.googleapis.com%2Fcss%3Ffamily%3DOpen%2BSans;strokeColor=#333333;fontColor=#1A1A1A;" parent="1" vertex="1">
          <mxGeometry x="800" y="420" width="40" height="30" as="geometry" />
        </mxCell>
        <mxCell id="zuYzNc_lJ5P3SSd-C0C7-160" value="" style="rounded=1;whiteSpace=wrap;html=1;fillColor=#F5F5EE;fontFamily=Open Sans;fontSource=https%3A%2F%2Ffonts.googleapis.com%2Fcss%3Ffamily%3DOpen%2BSans;strokeColor=#333333;fontColor=#1A1A1A;" parent="1" vertex="1">
          <mxGeometry x="800" y="450" width="40" height="30" as="geometry" />
        </mxCell>
        <mxCell id="zuYzNc_lJ5P3SSd-C0C7-161" value="*" style="rounded=1;whiteSpace=wrap;html=1;fillColor=#F5F5EE;fontFamily=Open Sans;fontSource=https%3A%2F%2Ffonts.googleapis.com%2Fcss%3Ffamily%3DOpen%2BSans;strokeColor=#333333;fontColor=#1A1A1A;" parent="1" vertex="1">
          <mxGeometry x="800" y="390" width="40" height="30" as="geometry" />
        </mxCell>
        <mxCell id="zuYzNc_lJ5P3SSd-C0C7-162" value="↵" style="rounded=1;whiteSpace=wrap;html=1;fillColor=#F5F5EE;fontFamily=Open Sans;fontSource=https%3A%2F%2Ffonts.googleapis.com%2Fcss%3Ffamily%3DOpen%2BSans;strokeColor=#333333;fontColor=#1A1A1A;" parent="1" vertex="1">
          <mxGeometry x="720" y="480" width="40" height="30" as="geometry" />
        </mxCell>
        <mxCell id="zuYzNc_lJ5P3SSd-C0C7-163" value="&lt;span style=&quot;font-family: Consolas, Courier, monospace, serif, EmojiFont; font-size: 16px; text-align: start; white-space: pre;&quot;&gt;▼&lt;/span&gt;" style="rounded=1;whiteSpace=wrap;html=1;fillColor=#F5F5EE;fontFamily=Open Sans;fontSource=https%3A%2F%2Ffonts.googleapis.com%2Fcss%3Ffamily%3DOpen%2BSans;strokeColor=#333333;fontColor=#1A1A1A;" parent="1" vertex="1">
          <mxGeometry x="760" y="480" width="40" height="30" as="geometry" />
        </mxCell>
        <mxCell id="zuYzNc_lJ5P3SSd-C0C7-164" value="←" style="rounded=1;whiteSpace=wrap;html=1;fillColor=#F5F5EE;fontFamily=Open Sans;fontSource=https%3A%2F%2Ffonts.googleapis.com%2Fcss%3Ffamily%3DOpen%2BSans;strokeColor=#333333;fontColor=#1A1A1A;" parent="1" vertex="1">
          <mxGeometry x="800" y="480" width="40" height="30" as="geometry" />
        </mxCell>
        <mxCell id="zuYzNc_lJ5P3SSd-C0C7-165" value="GUI" style="rounded=1;whiteSpace=wrap;html=1;fillColor=#F5F5EE;fontFamily=Open Sans;fontSource=https%3A%2F%2Ffonts.googleapis.com%2Fcss%3Ffamily%3DOpen%2BSans;strokeColor=#333333;fontColor=#1A1A1A;" parent="1" vertex="1">
          <mxGeometry x="680" y="480" width="40" height="30" as="geometry" />
        </mxCell>
        <mxCell id="zuYzNc_lJ5P3SSd-C0C7-166" value="9" style="rounded=1;whiteSpace=wrap;html=1;fillColor=#F5F5EE;fontFamily=Open Sans;fontSource=https%3A%2F%2Ffonts.googleapis.com%2Fcss%3Ffamily%3DOpen%2BSans;strokeColor=#333333;fontColor=#1A1A1A;" parent="1" vertex="1">
          <mxGeometry x="840" y="420" width="40" height="30" as="geometry" />
        </mxCell>
        <mxCell id="zuYzNc_lJ5P3SSd-C0C7-167" value="" style="rounded=1;whiteSpace=wrap;html=1;fillColor=#F5F5EE;fontFamily=Open Sans;fontSource=https%3A%2F%2Ffonts.googleapis.com%2Fcss%3Ffamily%3DOpen%2BSans;strokeColor=#333333;fontColor=#1A1A1A;" parent="1" vertex="1">
          <mxGeometry x="840" y="450" width="40" height="30" as="geometry" />
        </mxCell>
        <mxCell id="zuYzNc_lJ5P3SSd-C0C7-168" value="(" style="rounded=1;whiteSpace=wrap;html=1;fillColor=#F5F5EE;fontFamily=Open Sans;fontSource=https%3A%2F%2Ffonts.googleapis.com%2Fcss%3Ffamily%3DOpen%2BSans;strokeColor=#333333;fontColor=#1A1A1A;" parent="1" vertex="1">
          <mxGeometry x="840" y="390" width="40" height="30" as="geometry" />
        </mxCell>
        <mxCell id="zuYzNc_lJ5P3SSd-C0C7-169" value="0" style="rounded=1;whiteSpace=wrap;html=1;fillColor=#F5F5EE;fontFamily=Open Sans;fontSource=https%3A%2F%2Ffonts.googleapis.com%2Fcss%3Ffamily%3DOpen%2BSans;strokeColor=#333333;fontColor=#1A1A1A;" parent="1" vertex="1">
          <mxGeometry x="880" y="420" width="40" height="30" as="geometry" />
        </mxCell>
        <mxCell id="zuYzNc_lJ5P3SSd-C0C7-170" value="" style="rounded=1;whiteSpace=wrap;html=1;fillColor=#F5F5EE;fontFamily=Open Sans;fontSource=https%3A%2F%2Ffonts.googleapis.com%2Fcss%3Ffamily%3DOpen%2BSans;strokeColor=#333333;fontColor=#1A1A1A;" parent="1" vertex="1">
          <mxGeometry x="880" y="450" width="40" height="30" as="geometry" />
        </mxCell>
        <mxCell id="zuYzNc_lJ5P3SSd-C0C7-171" value=")" style="rounded=1;whiteSpace=wrap;html=1;fillColor=#F5F5EE;fontFamily=Open Sans;fontSource=https%3A%2F%2Ffonts.googleapis.com%2Fcss%3Ffamily%3DOpen%2BSans;strokeColor=#333333;fontColor=#1A1A1A;" parent="1" vertex="1">
          <mxGeometry x="880" y="390" width="40" height="30" as="geometry" />
        </mxCell>
        <mxCell id="zuYzNc_lJ5P3SSd-C0C7-172" value="~" style="rounded=1;whiteSpace=wrap;html=1;fillColor=#F5F5EE;fontFamily=Open Sans;fontSource=https%3A%2F%2Ffonts.googleapis.com%2Fcss%3Ffamily%3DOpen%2BSans;strokeColor=#333333;fontColor=#1A1A1A;" parent="1" vertex="1">
          <mxGeometry x="920" y="420" width="40" height="30" as="geometry" />
        </mxCell>
        <mxCell id="zuYzNc_lJ5P3SSd-C0C7-173" value="" style="rounded=1;whiteSpace=wrap;html=1;fillColor=#F5F5EE;fontFamily=Open Sans;fontSource=https%3A%2F%2Ffonts.googleapis.com%2Fcss%3Ffamily%3DOpen%2BSans;strokeColor=#333333;fontColor=#1A1A1A;" parent="1" vertex="1">
          <mxGeometry x="920" y="450" width="40" height="30" as="geometry" />
        </mxCell>
        <mxCell id="zuYzNc_lJ5P3SSd-C0C7-176" value="RESET" style="rounded=1;whiteSpace=wrap;html=1;fillColor=#F5F5EE;fontFamily=Open Sans;fontSource=https%3A%2F%2Ffonts.googleapis.com%2Fcss%3Ffamily%3DOpen%2BSans;strokeColor=#333333;fontColor=#1A1A1A;" parent="1" vertex="1">
          <mxGeometry x="60" y="650" width="40" height="30" as="geometry" />
        </mxCell>
        <mxCell id="zuYzNc_lJ5P3SSd-C0C7-177" value="DEBUG" style="rounded=1;whiteSpace=wrap;html=1;fillColor=#F5F5EE;fontFamily=Open Sans;fontSource=https%3A%2F%2Ffonts.googleapis.com%2Fcss%3Ffamily%3DOpen%2BSans;strokeColor=#333333;fontColor=#1A1A1A;" parent="1" vertex="1">
          <mxGeometry x="60" y="680" width="40" height="30" as="geometry" />
        </mxCell>
        <mxCell id="zuYzNc_lJ5P3SSd-C0C7-178" value="F11" style="rounded=1;whiteSpace=wrap;html=1;fillColor=#F5F5EE;fontFamily=Open Sans;fontSource=https%3A%2F%2Ffonts.googleapis.com%2Fcss%3Ffamily%3DOpen%2BSans;strokeColor=#333333;fontColor=#1A1A1A;" parent="1" vertex="1">
          <mxGeometry x="100" y="650" width="40" height="30" as="geometry" />
        </mxCell>
        <mxCell id="zuYzNc_lJ5P3SSd-C0C7-179" value="" style="rounded=1;whiteSpace=wrap;html=1;fillColor=#F5F5EE;fontFamily=Open Sans;fontSource=https%3A%2F%2Ffonts.googleapis.com%2Fcss%3Ffamily%3DOpen%2BSans;strokeColor=#333333;fontColor=#1A1A1A;" parent="1" vertex="1">
          <mxGeometry x="100" y="680" width="40" height="30" as="geometry" />
        </mxCell>
        <mxCell id="zuYzNc_lJ5P3SSd-C0C7-180" value="F1" style="rounded=1;whiteSpace=wrap;html=1;fillColor=#F5F5EE;fontFamily=Open Sans;fontSource=https%3A%2F%2Ffonts.googleapis.com%2Fcss%3Ffamily%3DOpen%2BSans;strokeColor=#333333;fontColor=#1A1A1A;" parent="1" vertex="1">
          <mxGeometry x="100" y="620" width="40" height="30" as="geometry" />
        </mxCell>
        <mxCell id="zuYzNc_lJ5P3SSd-C0C7-181" value="F12" style="rounded=1;whiteSpace=wrap;html=1;fillColor=#F5F5EE;fontFamily=Open Sans;fontSource=https%3A%2F%2Ffonts.googleapis.com%2Fcss%3Ffamily%3DOpen%2BSans;strokeColor=#333333;fontColor=#1A1A1A;" parent="1" vertex="1">
          <mxGeometry x="140" y="650" width="40" height="30" as="geometry" />
        </mxCell>
        <mxCell id="zuYzNc_lJ5P3SSd-C0C7-182" value="" style="rounded=1;whiteSpace=wrap;html=1;fillColor=#F5F5EE;fontFamily=Open Sans;fontSource=https%3A%2F%2Ffonts.googleapis.com%2Fcss%3Ffamily%3DOpen%2BSans;strokeColor=#333333;fontColor=#1A1A1A;" parent="1" vertex="1">
          <mxGeometry x="140" y="680" width="40" height="30" as="geometry" />
        </mxCell>
        <mxCell id="zuYzNc_lJ5P3SSd-C0C7-183" value="F2" style="rounded=1;whiteSpace=wrap;html=1;fillColor=#F5F5EE;fontFamily=Open Sans;fontSource=https%3A%2F%2Ffonts.googleapis.com%2Fcss%3Ffamily%3DOpen%2BSans;strokeColor=#333333;fontColor=#1A1A1A;" parent="1" vertex="1">
          <mxGeometry x="140" y="620" width="40" height="30" as="geometry" />
        </mxCell>
        <mxCell id="zuYzNc_lJ5P3SSd-C0C7-184" value="F13" style="rounded=1;whiteSpace=wrap;html=1;fillColor=#F5F5EE;fontFamily=Open Sans;fontSource=https%3A%2F%2Ffonts.googleapis.com%2Fcss%3Ffamily%3DOpen%2BSans;strokeColor=#333333;fontColor=#1A1A1A;" parent="1" vertex="1">
          <mxGeometry x="180" y="650" width="40" height="30" as="geometry" />
        </mxCell>
        <mxCell id="zuYzNc_lJ5P3SSd-C0C7-185" value="" style="rounded=1;whiteSpace=wrap;html=1;fillColor=#F5F5EE;fontFamily=Open Sans;fontSource=https%3A%2F%2Ffonts.googleapis.com%2Fcss%3Ffamily%3DOpen%2BSans;strokeColor=#333333;fontColor=#1A1A1A;" parent="1" vertex="1">
          <mxGeometry x="180" y="680" width="40" height="30" as="geometry" />
        </mxCell>
        <mxCell id="zuYzNc_lJ5P3SSd-C0C7-186" value="F3" style="rounded=1;whiteSpace=wrap;html=1;fillColor=#F5F5EE;fontFamily=Open Sans;fontSource=https%3A%2F%2Ffonts.googleapis.com%2Fcss%3Ffamily%3DOpen%2BSans;strokeColor=#333333;fontColor=#1A1A1A;" parent="1" vertex="1">
          <mxGeometry x="180" y="620" width="40" height="30" as="geometry" />
        </mxCell>
        <mxCell id="zuYzNc_lJ5P3SSd-C0C7-187" value="F14" style="rounded=1;whiteSpace=wrap;html=1;fillColor=#F5F5EE;fontFamily=Open Sans;fontSource=https%3A%2F%2Ffonts.googleapis.com%2Fcss%3Ffamily%3DOpen%2BSans;strokeColor=#333333;fontColor=#1A1A1A;" parent="1" vertex="1">
          <mxGeometry x="220" y="650" width="40" height="30" as="geometry" />
        </mxCell>
        <mxCell id="zuYzNc_lJ5P3SSd-C0C7-188" value="" style="rounded=1;whiteSpace=wrap;html=1;fillColor=#F5F5EE;fontFamily=Open Sans;fontSource=https%3A%2F%2Ffonts.googleapis.com%2Fcss%3Ffamily%3DOpen%2BSans;strokeColor=#333333;fontColor=#1A1A1A;" parent="1" vertex="1">
          <mxGeometry x="220" y="680" width="40" height="30" as="geometry" />
        </mxCell>
        <mxCell id="zuYzNc_lJ5P3SSd-C0C7-189" value="F4" style="rounded=1;whiteSpace=wrap;html=1;fillColor=#F5F5EE;fontFamily=Open Sans;fontSource=https%3A%2F%2Ffonts.googleapis.com%2Fcss%3Ffamily%3DOpen%2BSans;strokeColor=#333333;fontColor=#1A1A1A;" parent="1" vertex="1">
          <mxGeometry x="220" y="620" width="40" height="30" as="geometry" />
        </mxCell>
        <mxCell id="zuYzNc_lJ5P3SSd-C0C7-190" value="F15" style="rounded=1;whiteSpace=wrap;html=1;fillColor=#F5F5EE;fontFamily=Open Sans;fontSource=https%3A%2F%2Ffonts.googleapis.com%2Fcss%3Ffamily%3DOpen%2BSans;strokeColor=#333333;fontColor=#1A1A1A;" parent="1" vertex="1">
          <mxGeometry x="260" y="650" width="40" height="30" as="geometry" />
        </mxCell>
        <mxCell id="zuYzNc_lJ5P3SSd-C0C7-191" value="" style="rounded=1;whiteSpace=wrap;html=1;fillColor=#F5F5EE;fontFamily=Open Sans;fontSource=https%3A%2F%2Ffonts.googleapis.com%2Fcss%3Ffamily%3DOpen%2BSans;strokeColor=#333333;fontColor=#1A1A1A;" parent="1" vertex="1">
          <mxGeometry x="260" y="680" width="40" height="30" as="geometry" />
        </mxCell>
        <mxCell id="zuYzNc_lJ5P3SSd-C0C7-192" value="F5" style="rounded=1;whiteSpace=wrap;html=1;fillColor=#F5F5EE;fontFamily=Open Sans;fontSource=https%3A%2F%2Ffonts.googleapis.com%2Fcss%3Ffamily%3DOpen%2BSans;strokeColor=#333333;fontColor=#1A1A1A;" parent="1" vertex="1">
          <mxGeometry x="260" y="620" width="40" height="30" as="geometry" />
        </mxCell>
        <mxCell id="zuYzNc_lJ5P3SSd-C0C7-193" value="DEL" style="rounded=1;whiteSpace=wrap;html=1;fillColor=#F5F5EE;fontFamily=Open Sans;fontSource=https%3A%2F%2Ffonts.googleapis.com%2Fcss%3Ffamily%3DOpen%2BSans;strokeColor=#333333;fontColor=#1A1A1A;" parent="1" vertex="1">
          <mxGeometry x="180" y="710" width="40" height="30" as="geometry" />
        </mxCell>
        <mxCell id="zuYzNc_lJ5P3SSd-C0C7-194" value="&lt;span style=&quot;font-family: Consolas, Courier, monospace, serif, EmojiFont; font-size: 16px; text-align: start; white-space: pre;&quot;&gt;▼&lt;/span&gt;" style="rounded=1;whiteSpace=wrap;html=1;fillColor=#F5F5EE;fontFamily=Open Sans;fontSource=https%3A%2F%2Ffonts.googleapis.com%2Fcss%3Ffamily%3DOpen%2BSans;strokeColor=#333333;fontColor=#1A1A1A;" parent="1" vertex="1">
          <mxGeometry x="220" y="710" width="40" height="30" as="geometry" />
        </mxCell>
        <mxCell id="zuYzNc_lJ5P3SSd-C0C7-195" value="&lt;table&gt;&lt;tbody&gt;&lt;tr class=&quot;ztXv9&quot;&gt;&lt;th style=&quot;padding-left: 0px;&quot;&gt;&lt;/th&gt;&lt;th&gt;⎵&lt;/th&gt;&lt;/tr&gt;&lt;/tbody&gt;&lt;/table&gt;" style="rounded=1;whiteSpace=wrap;html=1;fillColor=#F5F5EE;fontFamily=Open Sans;fontSource=https%3A%2F%2Ffonts.googleapis.com%2Fcss%3Ffamily%3DOpen%2BSans;strokeColor=#333333;fontColor=#1A1A1A;" parent="1" vertex="1">
          <mxGeometry x="260" y="710" width="40" height="30" as="geometry" />
        </mxCell>
        <mxCell id="zuYzNc_lJ5P3SSd-C0C7-196" value="ESC" style="rounded=1;whiteSpace=wrap;html=1;fillColor=#F5F5EE;fontFamily=Open Sans;fontSource=https%3A%2F%2Ffonts.googleapis.com%2Fcss%3Ffamily%3DOpen%2BSans;strokeColor=#333333;fontColor=#1A1A1A;" parent="1" vertex="1">
          <mxGeometry x="300" y="710" width="40" height="30" as="geometry" />
        </mxCell>
        <mxCell id="zuYzNc_lJ5P3SSd-C0C7-197" value="F16" style="rounded=1;whiteSpace=wrap;html=1;fillColor=#F5F5EE;fontFamily=Open Sans;fontSource=https%3A%2F%2Ffonts.googleapis.com%2Fcss%3Ffamily%3DOpen%2BSans;strokeColor=#333333;fontColor=#1A1A1A;" parent="1" vertex="1">
          <mxGeometry x="400" y="650" width="40" height="30" as="geometry" />
        </mxCell>
        <mxCell id="zuYzNc_lJ5P3SSd-C0C7-198" value="" style="rounded=1;whiteSpace=wrap;html=1;fillColor=#F5F5EE;fontFamily=Open Sans;fontSource=https%3A%2F%2Ffonts.googleapis.com%2Fcss%3Ffamily%3DOpen%2BSans;strokeColor=#333333;fontColor=#1A1A1A;" parent="1" vertex="1">
          <mxGeometry x="400" y="680" width="40" height="30" as="geometry" />
        </mxCell>
        <mxCell id="zuYzNc_lJ5P3SSd-C0C7-199" value="F6" style="rounded=1;whiteSpace=wrap;html=1;fillColor=#F5F5EE;fontFamily=Open Sans;fontSource=https%3A%2F%2Ffonts.googleapis.com%2Fcss%3Ffamily%3DOpen%2BSans;strokeColor=#333333;fontColor=#1A1A1A;" parent="1" vertex="1">
          <mxGeometry x="400" y="620" width="40" height="30" as="geometry" />
        </mxCell>
        <mxCell id="zuYzNc_lJ5P3SSd-C0C7-200" value="F17" style="rounded=1;whiteSpace=wrap;html=1;fillColor=#F5F5EE;fontFamily=Open Sans;fontSource=https%3A%2F%2Ffonts.googleapis.com%2Fcss%3Ffamily%3DOpen%2BSans;strokeColor=#333333;fontColor=#1A1A1A;" parent="1" vertex="1">
          <mxGeometry x="440" y="650" width="40" height="30" as="geometry" />
        </mxCell>
        <mxCell id="zuYzNc_lJ5P3SSd-C0C7-201" value="" style="rounded=1;whiteSpace=wrap;html=1;fillColor=#F5F5EE;fontFamily=Open Sans;fontSource=https%3A%2F%2Ffonts.googleapis.com%2Fcss%3Ffamily%3DOpen%2BSans;strokeColor=#333333;fontColor=#1A1A1A;" parent="1" vertex="1">
          <mxGeometry x="440" y="680" width="40" height="30" as="geometry" />
        </mxCell>
        <mxCell id="zuYzNc_lJ5P3SSd-C0C7-202" value="F7" style="rounded=1;whiteSpace=wrap;html=1;fillColor=#F5F5EE;fontFamily=Open Sans;fontSource=https%3A%2F%2Ffonts.googleapis.com%2Fcss%3Ffamily%3DOpen%2BSans;strokeColor=#333333;fontColor=#1A1A1A;" parent="1" vertex="1">
          <mxGeometry x="440" y="620" width="40" height="30" as="geometry" />
        </mxCell>
        <mxCell id="zuYzNc_lJ5P3SSd-C0C7-203" value="F18" style="rounded=1;whiteSpace=wrap;html=1;fillColor=#F5F5EE;fontFamily=Open Sans;fontSource=https%3A%2F%2Ffonts.googleapis.com%2Fcss%3Ffamily%3DOpen%2BSans;strokeColor=#333333;fontColor=#1A1A1A;" parent="1" vertex="1">
          <mxGeometry x="480" y="650" width="40" height="30" as="geometry" />
        </mxCell>
        <mxCell id="zuYzNc_lJ5P3SSd-C0C7-204" value="" style="rounded=1;whiteSpace=wrap;html=1;fillColor=#F5F5EE;fontFamily=Open Sans;fontSource=https%3A%2F%2Ffonts.googleapis.com%2Fcss%3Ffamily%3DOpen%2BSans;strokeColor=#333333;fontColor=#1A1A1A;" parent="1" vertex="1">
          <mxGeometry x="480" y="680" width="40" height="30" as="geometry" />
        </mxCell>
        <mxCell id="zuYzNc_lJ5P3SSd-C0C7-205" value="F8" style="rounded=1;whiteSpace=wrap;html=1;fillColor=#F5F5EE;fontFamily=Open Sans;fontSource=https%3A%2F%2Ffonts.googleapis.com%2Fcss%3Ffamily%3DOpen%2BSans;strokeColor=#333333;fontColor=#1A1A1A;" parent="1" vertex="1">
          <mxGeometry x="480" y="620" width="40" height="30" as="geometry" />
        </mxCell>
        <mxCell id="zuYzNc_lJ5P3SSd-C0C7-206" value="↵" style="rounded=1;whiteSpace=wrap;html=1;fillColor=#F5F5EE;fontFamily=Open Sans;fontSource=https%3A%2F%2Ffonts.googleapis.com%2Fcss%3Ffamily%3DOpen%2BSans;strokeColor=#333333;fontColor=#1A1A1A;" parent="1" vertex="1">
          <mxGeometry x="400" y="710" width="40" height="30" as="geometry" />
        </mxCell>
        <mxCell id="zuYzNc_lJ5P3SSd-C0C7-207" value="&lt;span style=&quot;font-family: Consolas, Courier, monospace, serif, EmojiFont; font-size: 16px; text-align: start; white-space: pre;&quot;&gt;▼&lt;/span&gt;" style="rounded=1;whiteSpace=wrap;html=1;fillColor=#F5F5EE;fontFamily=Open Sans;fontSource=https%3A%2F%2Ffonts.googleapis.com%2Fcss%3Ffamily%3DOpen%2BSans;strokeColor=#333333;fontColor=#1A1A1A;" parent="1" vertex="1">
          <mxGeometry x="440" y="710" width="40" height="30" as="geometry" />
        </mxCell>
        <mxCell id="zuYzNc_lJ5P3SSd-C0C7-208" value="←" style="rounded=1;whiteSpace=wrap;html=1;fillColor=#F5F5EE;fontFamily=Open Sans;fontSource=https%3A%2F%2Ffonts.googleapis.com%2Fcss%3Ffamily%3DOpen%2BSans;strokeColor=#333333;fontColor=#1A1A1A;" parent="1" vertex="1">
          <mxGeometry x="480" y="710" width="40" height="30" as="geometry" />
        </mxCell>
        <mxCell id="zuYzNc_lJ5P3SSd-C0C7-209" value="GUI" style="rounded=1;whiteSpace=wrap;html=1;fillColor=#F5F5EE;fontFamily=Open Sans;fontSource=https%3A%2F%2Ffonts.googleapis.com%2Fcss%3Ffamily%3DOpen%2BSans;strokeColor=#333333;fontColor=#1A1A1A;" parent="1" vertex="1">
          <mxGeometry x="360" y="710" width="40" height="30" as="geometry" />
        </mxCell>
        <mxCell id="zuYzNc_lJ5P3SSd-C0C7-210" value="F19" style="rounded=1;whiteSpace=wrap;html=1;fillColor=#F5F5EE;fontFamily=Open Sans;fontSource=https%3A%2F%2Ffonts.googleapis.com%2Fcss%3Ffamily%3DOpen%2BSans;strokeColor=#333333;fontColor=#1A1A1A;" parent="1" vertex="1">
          <mxGeometry x="520" y="650" width="40" height="30" as="geometry" />
        </mxCell>
        <mxCell id="zuYzNc_lJ5P3SSd-C0C7-211" value="" style="rounded=1;whiteSpace=wrap;html=1;fillColor=#F5F5EE;fontFamily=Open Sans;fontSource=https%3A%2F%2Ffonts.googleapis.com%2Fcss%3Ffamily%3DOpen%2BSans;strokeColor=#333333;fontColor=#1A1A1A;" parent="1" vertex="1">
          <mxGeometry x="520" y="680" width="40" height="30" as="geometry" />
        </mxCell>
        <mxCell id="zuYzNc_lJ5P3SSd-C0C7-212" value="F9" style="rounded=1;whiteSpace=wrap;html=1;fillColor=#F5F5EE;fontFamily=Open Sans;fontSource=https%3A%2F%2Ffonts.googleapis.com%2Fcss%3Ffamily%3DOpen%2BSans;strokeColor=#333333;fontColor=#1A1A1A;" parent="1" vertex="1">
          <mxGeometry x="520" y="620" width="40" height="30" as="geometry" />
        </mxCell>
        <mxCell id="zuYzNc_lJ5P3SSd-C0C7-213" value="F20" style="rounded=1;whiteSpace=wrap;html=1;fillColor=#F5F5EE;fontFamily=Open Sans;fontSource=https%3A%2F%2Ffonts.googleapis.com%2Fcss%3Ffamily%3DOpen%2BSans;strokeColor=#333333;fontColor=#1A1A1A;" parent="1" vertex="1">
          <mxGeometry x="560" y="650" width="40" height="30" as="geometry" />
        </mxCell>
        <mxCell id="zuYzNc_lJ5P3SSd-C0C7-214" value="" style="rounded=1;whiteSpace=wrap;html=1;fillColor=#F5F5EE;fontFamily=Open Sans;fontSource=https%3A%2F%2Ffonts.googleapis.com%2Fcss%3Ffamily%3DOpen%2BSans;strokeColor=#333333;fontColor=#1A1A1A;" parent="1" vertex="1">
          <mxGeometry x="560" y="680" width="40" height="30" as="geometry" />
        </mxCell>
        <mxCell id="zuYzNc_lJ5P3SSd-C0C7-215" value="F10" style="rounded=1;whiteSpace=wrap;html=1;fillColor=#F5F5EE;fontFamily=Open Sans;fontSource=https%3A%2F%2Ffonts.googleapis.com%2Fcss%3Ffamily%3DOpen%2BSans;strokeColor=#333333;fontColor=#1A1A1A;" parent="1" vertex="1">
          <mxGeometry x="560" y="620" width="40" height="30" as="geometry" />
        </mxCell>
        <mxCell id="zuYzNc_lJ5P3SSd-C0C7-216" value="" style="rounded=1;whiteSpace=wrap;html=1;fillColor=#F5F5EE;fontFamily=Open Sans;fontSource=https%3A%2F%2Ffonts.googleapis.com%2Fcss%3Ffamily%3DOpen%2BSans;strokeColor=#333333;fontColor=#1A1A1A;" parent="1" vertex="1">
          <mxGeometry x="600" y="650" width="40" height="30" as="geometry" />
        </mxCell>
        <mxCell id="zuYzNc_lJ5P3SSd-C0C7-217" value="" style="rounded=1;whiteSpace=wrap;html=1;fillColor=#F5F5EE;fontFamily=Open Sans;fontSource=https%3A%2F%2Ffonts.googleapis.com%2Fcss%3Ffamily%3DOpen%2BSans;strokeColor=#333333;fontColor=#1A1A1A;" parent="1" vertex="1">
          <mxGeometry x="600" y="680" width="40" height="30" as="geometry" />
        </mxCell>
        <mxCell id="zuYzNc_lJ5P3SSd-C0C7-223" value="Volume&lt;div&gt;-/+&lt;/div&gt;" style="rounded=1;whiteSpace=wrap;html=1;fillColor=#F5F5EE;fontFamily=Open Sans;fontSource=https%3A%2F%2Ffonts.googleapis.com%2Fcss%3Ffamily%3DOpen%2BSans;fontSize=10;strokeWidth=1;perimeterSpacing=0;glass=0;shadow=0;strokeColor=#333333;fontColor=#1A1A1A;" parent="1" vertex="1">
          <mxGeometry x="-10" y="430" width="40" height="40" as="geometry" />
        </mxCell>
        <mxCell id="zuYzNc_lJ5P3SSd-C0C7-224" value="&lt;span style=&quot;font-size: 10px;&quot;&gt;Volume&lt;/span&gt;&lt;div style=&quot;font-size: 10px;&quot;&gt;-/+&lt;/div&gt;" style="rounded=1;whiteSpace=wrap;html=1;fillColor=#F5F5EE;fontFamily=Open Sans;fontSource=https%3A%2F%2Ffonts.googleapis.com%2Fcss%3Ffamily%3DOpen%2BSans;strokeWidth=1;perimeterSpacing=0;glass=0;shadow=0;strokeColor=#333333;fontColor=#1A1A1A;" parent="1" vertex="1">
          <mxGeometry x="30" y="430" width="40" height="40" as="geometry" />
        </mxCell>
        <mxCell id="zuYzNc_lJ5P3SSd-C0C7-227" value="Volume&lt;div&gt;-/+&lt;/div&gt;" style="rounded=1;whiteSpace=wrap;html=1;fillColor=#F5F5EE;fontFamily=Open Sans;fontSource=https%3A%2F%2Ffonts.googleapis.com%2Fcss%3Ffamily%3DOpen%2BSans;fontSize=10;strokeWidth=1;perimeterSpacing=0;glass=0;shadow=0;strokeColor=#333333;fontColor=#1A1A1A;" parent="1" vertex="1">
          <mxGeometry x="630" y="430" width="40" height="40" as="geometry" />
        </mxCell>
        <mxCell id="zuYzNc_lJ5P3SSd-C0C7-228" value="&lt;span style=&quot;font-size: 10px;&quot;&gt;Volume&lt;/span&gt;&lt;div style=&quot;font-size: 10px;&quot;&gt;-/+&lt;/div&gt;" style="rounded=1;whiteSpace=wrap;html=1;fillColor=#F5F5EE;fontFamily=Open Sans;fontSource=https%3A%2F%2Ffonts.googleapis.com%2Fcss%3Ffamily%3DOpen%2BSans;strokeWidth=1;perimeterSpacing=0;glass=0;shadow=0;strokeColor=#333333;fontColor=#1A1A1A;" parent="1" vertex="1">
          <mxGeometry x="670" y="430" width="40" height="40" as="geometry" />
        </mxCell>
        <mxCell id="zuYzNc_lJ5P3SSd-C0C7-229" value="&lt;font style=&quot;font-size: 10px;&quot;&gt;CTL+Z&lt;/font&gt;&lt;div style=&quot;font-size: 10px;&quot;&gt;&lt;font style=&quot;font-size: 10px;&quot;&gt;CTL+Y&lt;/font&gt;&lt;/div&gt;" style="rounded=1;whiteSpace=wrap;html=1;fillColor=#F5F5EE;fontFamily=Open Sans;fontSource=https%3A%2F%2Ffonts.googleapis.com%2Fcss%3Ffamily%3DOpen%2BSans;fontSize=10;strokeWidth=1;perimeterSpacing=0;glass=0;shadow=0;strokeColor=#333333;fontColor=#1A1A1A;" parent="1" vertex="1">
          <mxGeometry x="310" y="660" width="40" height="40" as="geometry" />
        </mxCell>
        <mxCell id="zuYzNc_lJ5P3SSd-C0C7-230" value="SCR" style="rounded=1;whiteSpace=wrap;html=1;fillColor=#F5F5EE;fontFamily=Open Sans;fontSource=https%3A%2F%2Ffonts.googleapis.com%2Fcss%3Ffamily%3DOpen%2BSans;strokeWidth=1;perimeterSpacing=0;glass=0;shadow=0;strokeColor=#333333;fontColor=#1A1A1A;" parent="1" vertex="1">
          <mxGeometry x="350" y="660" width="40" height="40" as="geometry" />
        </mxCell>
        <mxCell id="zuYzNc_lJ5P3SSd-C0C7-26" value="K+SFT" style="rounded=1;whiteSpace=wrap;html=1;fillColor=#F5F5EE;fontFamily=Open Sans;fontSource=https%3A%2F%2Ffonts.googleapis.com%2Fcss%3Ffamily%3DOpen%2BSans;strokeColor=#333333;fontColor=#1A1A1A;container=0;" parent="1" vertex="1">
          <mxGeometry x="480" y="190" width="40" height="30" as="geometry" />
        </mxCell>
        <mxCell id="zuYzNc_lJ5P3SSd-C0C7-27" value=", &amp;lt;" style="rounded=1;whiteSpace=wrap;html=1;fillColor=#F5F5EE;fontFamily=Open Sans;fontSource=https%3A%2F%2Ffonts.googleapis.com%2Fcss%3Ffamily%3DOpen%2BSans;strokeColor=#333333;fontColor=#1A1A1A;container=0;" parent="1" vertex="1">
          <mxGeometry x="480" y="220" width="40" height="30" as="geometry" />
        </mxCell>
        <mxCell id="zuYzNc_lJ5P3SSd-C0C7-28" value="I" style="rounded=1;whiteSpace=wrap;html=1;fillColor=#F5F5EE;fontFamily=Open Sans;fontSource=https%3A%2F%2Ffonts.googleapis.com%2Fcss%3Ffamily%3DOpen%2BSans;strokeColor=#333333;fontColor=#1A1A1A;container=0;" parent="1" vertex="1">
          <mxGeometry x="480" y="160" width="40" height="30" as="geometry" />
        </mxCell>
        <mxCell id="zuYzNc_lJ5P3SSd-C0C7-31" value="←" style="rounded=1;whiteSpace=wrap;html=1;fillColor=#F5F5EE;fontFamily=Open Sans;fontSource=https%3A%2F%2Ffonts.googleapis.com%2Fcss%3Ffamily%3DOpen%2BSans;strokeColor=#333333;fontColor=#1A1A1A;container=0;" parent="1" vertex="1">
          <mxGeometry x="480" y="250" width="40" height="30" as="geometry" />
        </mxCell>
        <mxCell id="zuYzNc_lJ5P3SSd-C0C7-33" value="L+ALT" style="rounded=1;whiteSpace=wrap;html=1;fillColor=#F5F5EE;fontFamily=Open Sans;fontSource=https%3A%2F%2Ffonts.googleapis.com%2Fcss%3Ffamily%3DOpen%2BSans;strokeColor=#333333;fontColor=#1A1A1A;container=0;" parent="1" vertex="1">
          <mxGeometry x="520" y="190" width="40" height="30" as="geometry" />
        </mxCell>
        <mxCell id="zuYzNc_lJ5P3SSd-C0C7-34" value=". &amp;gt;" style="rounded=1;whiteSpace=wrap;html=1;fillColor=#F5F5EE;fontFamily=Open Sans;fontSource=https%3A%2F%2Ffonts.googleapis.com%2Fcss%3Ffamily%3DOpen%2BSans;strokeColor=#333333;fontColor=#1A1A1A;container=0;" parent="1" vertex="1">
          <mxGeometry x="520" y="220" width="40" height="30" as="geometry" />
        </mxCell>
        <mxCell id="zuYzNc_lJ5P3SSd-C0C7-35" value="O" style="rounded=1;whiteSpace=wrap;html=1;fillColor=#F5F5EE;fontFamily=Open Sans;fontSource=https%3A%2F%2Ffonts.googleapis.com%2Fcss%3Ffamily%3DOpen%2BSans;strokeColor=#333333;fontColor=#1A1A1A;container=0;" parent="1" vertex="1">
          <mxGeometry x="520" y="160" width="40" height="30" as="geometry" />
        </mxCell>
        <mxCell id="GVH4jZ6WvnSyrgxlW-XO-7" value="Layer 1" style="rounded=1;whiteSpace=wrap;html=1;fillColor=#F5F5EE;fontFamily=Open Sans;fontSource=https%3A%2F%2Ffonts.googleapis.com%2Fcss%3Ffamily%3DOpen%2BSans;strokeColor=#333333;fontColor=#1A1A1A;" vertex="1" parent="1">
          <mxGeometry x="-220" y="360" width="500" height="20" as="geometry" />
        </mxCell>
        <mxCell id="GVH4jZ6WvnSyrgxlW-XO-8" value="Layer 0 - Default" style="rounded=1;whiteSpace=wrap;html=1;fillColor=#F5F5EE;fontFamily=Open Sans;fontSource=https%3A%2F%2Ffonts.googleapis.com%2Fcss%3Ffamily%3DOpen%2BSans;strokeColor=#333333;fontColor=#1A1A1A;" vertex="1" parent="1">
          <mxGeometry x="100" y="130" width="500" height="20" as="geometry" />
        </mxCell>
        <mxCell id="GVH4jZ6WvnSyrgxlW-XO-9" value="Layer 2" style="rounded=1;whiteSpace=wrap;html=1;fillColor=#F5F5EE;fontFamily=Open Sans;fontSource=https%3A%2F%2Ffonts.googleapis.com%2Fcss%3Ffamily%3DOpen%2BSans;strokeColor=#333333;fontColor=#1A1A1A;" vertex="1" parent="1">
          <mxGeometry x="420" y="360" width="500" height="20" as="geometry" />
        </mxCell>
        <mxCell id="GVH4jZ6WvnSyrgxlW-XO-10" value="Layer 3" style="rounded=1;whiteSpace=wrap;html=1;fillColor=#F5F5EE;fontFamily=Open Sans;fontSource=https%3A%2F%2Ffonts.googleapis.com%2Fcss%3Ffamily%3DOpen%2BSans;strokeColor=#333333;fontColor=#1A1A1A;" vertex="1" parent="1">
          <mxGeometry x="100" y="590" width="500" height="20" as="geometry" />
        </mxCell>
      </root>
    </mxGraphModel>
  </diagram>
</mxfile>
